<svg width="70" height="70" viewBox="0 0 70 70" fill="none" xmlns="http://www.w3.org/2000/svg">
<g clip-path="url(#clip0)">
<path d="M35.0121 17.0073C31.1352 17.0124 27.9932 20.1544 27.9888 24.0313V27.0568C27.9888 30.9355 31.1333 34.0801 35.0121 34.0801C38.8915 34.0801 42.036 30.9355 42.036 27.0568V24.0313C42.0309 20.1538 38.8889 17.0118 35.0121 17.0073ZM40.0915 27.0568C40.0915 29.8621 37.8173 32.1356 35.0121 32.1356C32.2068 32.1356 29.9332 29.8621 29.9332 27.0568V24.0313C29.9332 21.226 32.2068 18.9518 35.0121 18.9518C37.8173 18.9518 40.0915 21.226 40.0915 24.0313V27.0568Z" fill="#F3A112"/>
<path d="M52.7126 36.0614C56.173 36.0576 58.9776 33.253 58.9814 29.792V27.1437C58.9928 24.8967 57.8003 22.8149 55.8559 21.6882C53.9115 20.5609 51.5132 20.5609 49.5687 21.6882C47.6243 22.8149 46.4318 24.8967 46.4432 27.1437V29.792C46.447 33.253 49.2516 36.0576 52.7126 36.0614ZM48.3876 27.1437C48.3781 25.5923 49.2004 24.1549 50.5429 23.3763C51.8847 22.5978 53.5405 22.5978 54.8824 23.3763C56.2249 24.1549 57.0471 25.5923 57.0376 27.1437V29.792C57.0471 31.3434 56.2249 32.7815 54.8824 33.5594C53.5405 34.3379 51.8847 34.3379 50.5429 33.5594C49.2004 32.7815 48.3781 31.3434 48.3876 29.792V27.1437Z" fill="#F3A112"/>
<path d="M63.5185 48.9941V43.0348C63.5147 39.3725 60.6651 36.3432 57.0098 36.116C56.5015 36.083 56.2426 36.404 56.0331 36.659C55.2204 37.6521 53.995 38.2148 52.7126 38.1838C51.4296 38.1522 50.2333 37.5306 49.4706 36.4989C49.2833 36.2425 48.9814 36.0951 48.6642 36.1046C47.4774 36.1318 46.3179 36.466 45.2988 37.0749C43.9304 35.502 41.9872 34.545 39.906 34.4184C39.887 34.4177 39.8674 34.4171 39.849 34.4171C39.3819 34.4171 39.1332 34.7209 38.9129 34.9899C37.9571 36.1577 36.5165 36.8185 35.0082 36.7818C33.5005 36.7451 32.0934 36.0141 31.1965 34.8013C31.0085 34.5462 30.7072 34.3987 30.3901 34.4076C28.3628 34.4538 26.4342 35.295 25.0208 36.7495C24.9138 36.8584 24.8125 36.9711 24.7125 37.085C23.7631 36.516 22.6902 36.1831 21.5844 36.116C21.073 36.083 20.8173 36.404 20.6078 36.659C19.7957 37.6521 18.5703 38.2148 17.2873 38.1832C16.0049 38.1522 14.8086 37.5306 14.0453 36.4989C13.8579 36.2432 13.556 36.0957 13.2389 36.1046C9.4804 36.2001 6.48271 39.2744 6.48145 43.0348V48.9941C6.48145 49.5315 6.91692 49.9663 7.45367 49.9663H22.8054V52.0203C22.8054 52.557 23.2403 52.9925 23.7776 52.9925H46.2463C46.7837 52.9925 47.2186 52.557 47.2186 52.0203V49.9663H62.5463C63.083 49.9663 63.5185 49.5315 63.5185 48.9941ZM22.8054 42.186V48.0219H8.42589V43.0348C8.44171 40.5131 10.3248 38.394 12.8268 38.0813C13.9814 39.3795 15.6346 40.1245 17.3721 40.1289C19.1096 40.1333 20.7667 39.3972 21.9281 38.1053C22.5263 38.1984 23.1029 38.4003 23.6283 38.701C23.0858 39.7827 22.8035 40.9758 22.8054 42.186ZM45.2741 51.0481H24.7499V42.186C24.7682 39.2067 27.012 36.7128 29.9724 36.3812C31.2668 37.8674 33.1397 38.7225 35.1107 38.7275C37.0811 38.732 38.9585 37.8863 40.2598 36.4065C43.1354 36.8192 45.2716 39.2807 45.2741 42.186V51.0481ZM61.574 48.0219H47.2186V42.186C47.2192 40.972 46.9344 39.7757 46.3875 38.6921C46.961 38.3655 47.5945 38.1572 48.2509 38.0807C49.4054 39.3795 51.0587 40.1238 52.7962 40.1289C54.5337 40.1333 56.1907 39.3972 57.3522 38.1053C59.7809 38.4857 61.5715 40.5764 61.574 43.0348V48.0219Z" fill="#F3A112"/>
<path d="M11.0186 27.1437V29.792C11.0072 32.0396 12.1997 34.1214 14.1442 35.2481C16.0886 36.3754 18.4869 36.3754 20.4313 35.2481C22.3758 34.1214 23.5683 32.0396 23.5569 29.792V27.1437C23.5683 24.8967 22.3758 22.8149 20.4313 21.6882C18.4869 20.5609 16.0886 20.5609 14.1442 21.6882C12.1997 22.8149 11.0072 24.8967 11.0186 27.1437ZM21.6124 27.1437V29.792C21.6219 31.3434 20.7997 32.7815 19.4579 33.5594C18.116 34.3379 16.4595 34.3379 15.1177 33.5594C13.7758 32.7815 12.9536 31.3434 12.9631 29.792V27.1437C12.9536 25.5923 13.7758 24.1549 15.1177 23.3763C16.4595 22.5978 18.116 22.5978 19.4579 23.3763C20.7997 24.1549 21.6219 25.5923 21.6124 27.1437Z" fill="#F3A112"/>
<path d="M0 0.972222V18.1887C0 18.7254 0.435475 19.1609 0.972222 19.1609C1.50897 19.1609 1.94444 18.7254 1.94444 18.1887V1.94444H18.1887C18.7254 1.94444 19.1609 1.50897 19.1609 0.972222C19.1609 0.435475 18.7254 0 18.1887 0H0.972222C0.435475 0 0 0.435475 0 0.972222Z" fill="#F3A112"/>
<path d="M18.1887 68.0558H1.94444V51.8116C1.94444 51.2748 1.50897 50.8394 0.972222 50.8394C0.435475 50.8394 0 51.2748 0 51.8116V69.028C0 69.5648 0.435475 70.0002 0.972222 70.0002H18.1887C18.7254 70.0002 19.1609 69.5648 19.1609 69.028C19.1609 68.4913 18.7254 68.0558 18.1887 68.0558Z" fill="#F3A112"/>
<path d="M69.0278 50.8394C68.491 50.8394 68.0555 51.2748 68.0555 51.8116V68.0558H51.8113C51.2746 68.0558 50.8391 68.4913 50.8391 69.028C50.8391 69.5648 51.2746 70.0002 51.8113 70.0002H69.0278C69.5645 70.0002 70 69.5648 70 69.028V51.8116C70 51.2748 69.5645 50.8394 69.0278 50.8394Z" fill="#F3A112"/>
<path d="M69.0278 0H51.8113C51.2746 0 50.8391 0.435475 50.8391 0.972222C50.8391 1.50897 51.2746 1.94444 51.8113 1.94444H68.0555V18.1887C68.0555 18.7254 68.491 19.1609 69.0278 19.1609C69.5645 19.1609 70 18.7254 70 18.1887V0.972222C70 0.435475 69.5645 0 69.0278 0Z" fill="#F3A112"/>
</g>
<defs>
<clipPath id="clip0">
<rect width="70" height="70" fill="white"/>
</clipPath>
</defs>
</svg>
