<svg width="70" height="70" viewBox="0 0 70 70" fill="none" xmlns="http://www.w3.org/2000/svg">
<path d="M35 0C25.5526 0.0108411 17.8963 7.66709 17.8855 17.1145V32.883C14.3989 36.9502 12.4842 42.1317 12.489 47.489C12.489 59.9015 22.5881 70 35 70C47.4119 70 57.511 59.9015 57.511 47.489C57.5159 42.1317 55.6012 36.9502 52.1146 32.883V17.1145C52.1037 7.66709 44.4475 0.0108411 35 0ZM35 1.85022C43.4266 1.85986 50.2547 8.68796 50.2644 17.1145V30.9605C49.3977 30.1594 48.4695 29.4271 47.489 28.7712V17.1145C47.489 10.2172 41.8974 4.62555 35 4.62555C28.1027 4.62555 22.511 10.2172 22.511 17.1145V28.7694C21.5305 29.4259 20.6024 30.1582 19.7357 30.9587V17.1145C19.7454 8.68796 26.5735 1.85986 35 1.85022ZM45.6388 27.6551C38.9956 24.0854 31.0045 24.0854 24.3613 27.6551V17.1145C24.3613 11.2386 29.1241 6.47577 35 6.47577C40.8759 6.47577 45.6388 11.2386 45.6388 17.1145V27.6551ZM35 68.1498C23.6078 68.1498 14.3392 58.8812 14.3392 47.489C14.3392 36.0968 23.6078 26.8282 35 26.8282C46.3923 26.8282 55.6608 36.0968 55.6608 47.489C55.6608 58.8812 46.3923 68.1498 35 68.1498Z" fill="#F3A112"/>
<path d="M38.1964 63.0216C37.1442 63.236 36.0733 63.3444 35.0001 63.3438C34.4893 63.3438 34.075 63.7582 34.075 64.2689C34.075 64.7803 34.4893 65.194 35.0001 65.194C36.198 65.1946 37.3929 65.0742 38.5674 64.8345C38.8957 64.773 39.1649 64.5393 39.2727 64.2225C39.3799 63.9063 39.3088 63.557 39.086 63.3083C38.8631 63.0595 38.5234 62.9499 38.197 63.0216H38.1964Z" fill="#F3A112"/>
<path d="M41.3179 62.0355C41.0065 62.1619 40.7885 62.4468 40.7481 62.7805C40.7072 63.1136 40.8505 63.443 41.1221 63.6406C41.3938 63.8381 41.7515 63.873 42.0557 63.7315C48.523 60.9206 52.7059 54.5406 52.7047 47.4891C52.7047 46.9783 52.2909 46.564 51.7796 46.564C51.2688 46.564 50.8545 46.9783 50.8545 47.4891C50.8557 53.804 47.1095 59.5179 41.3179 62.0355Z" fill="#F3A112"/>
<path d="M31.9524 31.9102C32.009 31.9102 32.065 31.9048 32.1204 31.8946C33.0702 31.7211 34.0345 31.6338 35 31.6344C35.5107 31.6344 35.9251 31.22 35.9251 30.7093C35.9251 30.1979 35.5107 29.7842 35 29.7842C33.9225 29.7842 32.8468 29.8811 31.7867 30.0751C31.317 30.1618 30.9905 30.5924 31.0339 31.0683C31.0767 31.5441 31.4748 31.9084 31.9524 31.9102Z" fill="#F3A112"/>
<path d="M29.3204 31.6677C29.1216 31.1973 28.579 30.9769 28.108 31.1757C21.5485 33.9407 17.2867 40.3701 17.2952 47.4891C17.2952 47.9999 17.7089 48.4143 18.2203 48.4143C18.731 48.4143 19.1454 47.9999 19.1454 47.4891C19.1376 41.114 22.9542 35.3561 28.8289 32.8801C29.2993 32.6814 29.5198 32.1381 29.3204 31.6677Z" fill="#F3A112"/>
<path d="M41.8215 42.9038C41.4602 42.5425 40.8747 42.5425 40.5134 42.9038L33.3052 50.112L29.4867 46.2941C29.2536 46.0568 28.9116 45.9634 28.5905 46.0484C28.2689 46.1333 28.0184 46.3844 27.9328 46.7055C27.8479 47.0265 27.9419 47.3692 28.1786 47.6023L32.6505 52.0742C33.0119 52.4356 33.5979 52.4356 33.9593 52.0742L41.8215 44.212C42.1829 43.8506 42.1829 43.2652 41.8215 42.9038Z" fill="#F3A112"/>
</svg>
