<svg width="70" height="70" viewBox="0 0 70 70" fill="none" xmlns="http://www.w3.org/2000/svg">
<g clip-path="url(#clip0)">
<path d="M65.3937 30.3911C63.1653 30.3939 61.2569 31.9877 60.8568 34.1801H54.1981C53.9991 29.647 52.1964 25.3313 49.1104 22.0041L53.8335 17.281C55.7752 18.6498 58.4394 18.3152 59.9826 16.5097C61.5264 14.7041 61.4414 12.0205 59.7876 10.3156C58.1337 8.61061 55.4535 8.445 53.6023 9.93268C51.7507 11.4209 51.3361 14.0739 52.6448 16.0557L47.8978 20.8021C44.5518 17.7601 40.2366 16.0012 35.7169 15.8373V9.17189C38.0704 8.80678 39.7592 6.71003 39.6142 4.33264C39.4691 1.9558 37.5385 0.0791192 35.1584 0.00242908C32.7776 -0.074261 30.7303 1.67349 30.4325 4.03699C30.1346 6.39994 31.6845 8.60116 34.0097 9.11687V15.8489C29.5322 16.0796 25.2776 17.8751 21.9882 20.9216L17.269 16.2024C18.6528 14.269 18.3371 11.5999 16.541 10.0416C14.7443 8.4839 12.0574 8.54948 10.3391 10.1933C8.6208 11.8371 8.4363 14.5185 9.91231 16.3824C11.3889 18.2458 14.0413 18.6798 16.0347 17.3833L20.7856 22.1336C17.738 25.4813 15.9758 29.801 15.8119 34.3246H9.18209C8.83365 31.9688 6.74856 30.2655 4.37006 30.3939C1.99211 30.5223 0.102087 32.4395 0.00872496 34.8197C-0.0846369 37.1993 1.64923 39.2594 4.00995 39.5734C6.37067 39.8879 8.58301 38.3536 9.1154 36.0317H15.8224C16.0525 40.4987 17.8397 44.7444 20.874 48.031L16.182 52.7229C14.2403 51.3548 11.5762 51.6887 10.0329 53.4943C8.48965 55.3004 8.57412 57.984 10.228 59.689C11.8818 61.3939 14.5621 61.5595 16.4132 60.0713C18.2649 58.5836 18.68 55.9306 17.3707 53.9483L22.0838 49.2358C25.3976 52.2623 29.67 54.0283 34.1536 54.224V60.8577C31.8146 61.2983 30.1952 63.4473 30.4164 65.8175C30.6375 68.1882 32.627 70.0004 35.0072 70.0004C37.3879 70.0004 39.3774 68.1882 39.5986 65.8175C39.8198 63.4473 38.2004 61.2983 35.8608 60.8577V54.224C40.3833 54.0261 44.6891 52.2311 48.0134 49.1585L52.7093 53.8538C51.355 55.8044 51.7084 58.4653 53.524 59.9957C55.3401 61.5256 58.022 61.4217 59.7148 59.7568C61.4075 58.0913 61.5542 55.411 60.0538 53.5704C58.5533 51.7299 55.8986 51.3342 53.9263 52.6568L49.2171 47.9476C52.2391 44.6349 54.0019 40.3664 54.1981 35.8873H60.8684C61.3353 38.273 63.5748 39.8868 65.9861 39.5745C68.3974 39.2622 70.1513 37.131 69.9951 34.7047C69.8384 32.2784 67.825 30.3906 65.3937 30.3906V30.3911ZM54.4409 11.462C55.4207 10.4828 56.9556 10.3317 58.1076 11.1014C59.2591 11.871 59.707 13.3471 59.1768 14.6269C58.6467 15.9067 57.2862 16.6336 55.9275 16.3635C54.5687 16.0934 53.5901 14.9009 53.5901 13.516C53.589 12.7452 53.8952 12.0061 54.4409 11.462ZM32.1035 4.61606C32.1035 3.01224 33.4034 1.71184 35.0072 1.71184C36.611 1.71184 37.9114 3.01224 37.9114 4.61606C37.9114 6.21933 36.611 7.51972 35.0072 7.51972C33.4045 7.51805 32.1052 6.21877 32.1035 4.61606ZM11.4672 15.5683C10.488 14.5891 10.3369 13.0536 11.1066 11.9022C11.8762 10.7502 13.3523 10.3022 14.6321 10.8324C15.9119 11.3626 16.6394 12.723 16.3687 14.0817C16.0986 15.4405 14.9066 16.4191 13.5212 16.4191C12.751 16.4185 12.0124 16.1129 11.4672 15.5683ZM4.62125 37.9062C3.01742 37.9062 1.71703 36.6058 1.71703 35.002C1.71703 33.3982 3.01742 32.0983 4.62125 32.0983C6.22507 32.0983 7.52491 33.3982 7.52491 35.002C7.52324 36.6053 6.22396 37.904 4.62125 37.9062ZM15.574 58.5419C14.4515 59.669 12.632 59.6845 11.4906 58.5775C10.3491 57.47 10.3091 55.6505 11.4017 54.4946C12.4937 53.3387 14.312 53.2753 15.4823 54.3523C15.5468 54.4596 15.6352 54.5507 15.7408 54.6185C16.7127 55.7711 16.6405 57.4761 15.574 58.5419ZM37.9109 65.3885C37.9125 66.9684 36.651 68.2599 35.0711 68.2949C33.4917 68.3299 32.1741 67.0957 32.1058 65.5174C32.0374 63.9386 33.2433 62.5954 34.8199 62.4937C34.9427 62.522 35.0706 62.522 35.1934 62.4937C36.7199 62.5926 37.9086 63.8586 37.9114 65.3885H37.9109ZM58.5472 54.4357C59.5269 55.4149 59.6781 56.9503 58.9084 58.1018C58.1387 59.2538 56.6627 59.7017 55.3829 59.1716C54.103 58.6414 53.3756 57.281 53.6457 55.9223C53.9158 54.5635 55.1084 53.5849 56.4938 53.5849C57.264 53.5854 58.0026 53.8911 58.5472 54.4357ZM35.0072 52.5368C25.3404 52.5368 17.5041 44.7005 17.5041 35.0337C17.5041 25.3668 25.3404 17.53 35.0072 17.53C44.674 17.5306 52.5109 25.3668 52.5109 35.0337C52.4998 44.6961 44.6696 52.5262 35.0072 52.5368ZM65.3937 37.9062C63.7899 37.9062 62.4895 36.6058 62.4895 35.002C62.4895 33.3982 63.7899 32.0983 65.3937 32.0983C66.9975 32.0983 68.2974 33.3982 68.2974 35.002C68.2957 36.6053 66.9964 37.904 65.3937 37.9062Z" fill="#F3A112"/>
<path d="M34.4954 19.5347C30.6159 22.4434 26.4052 24.8819 21.951 26.7986L21.8671 26.8347C21.5531 26.9692 21.3497 27.2776 21.3497 27.6189V35.0467C21.3497 39.852 23.646 44.0728 27.9901 47.2532C29.9851 48.7092 32.1975 49.8407 34.546 50.6059C34.6999 50.6509 34.8633 50.6515 35.0172 50.6076C37.4346 49.8484 39.7192 48.7198 41.791 47.2615C46.2879 44.0811 48.6647 39.8582 48.6647 35.0467V27.6189C48.6647 27.2776 48.4613 26.9692 48.1479 26.8347L48.0646 26.7986C43.6104 24.8819 39.3991 22.4439 35.5196 19.5347C35.2162 19.3074 34.7988 19.3074 34.4954 19.5347ZM46.9576 35.0467C46.9576 38.2649 45.7939 41.1163 43.4915 43.5582C43.4531 43.1047 43.0647 42.7607 42.6096 42.7779C42.1544 42.7946 41.7926 43.1664 41.7876 43.6221V44.4046C41.7876 44.6074 41.8599 44.8036 41.9921 44.9581C41.6293 45.2587 41.2464 45.5521 40.8446 45.8383C38.9834 47.1415 36.9439 48.1696 34.7894 48.8904C32.7221 48.174 30.7715 47.1576 28.9993 45.8744C28.6292 45.6033 28.2763 45.3259 27.9406 45.0414C28.1229 44.8803 28.2279 44.648 28.2279 44.4046V43.6221C28.2279 43.1503 27.8456 42.7685 27.3743 42.7685C26.9025 42.7685 26.5208 43.1503 26.5208 43.6221V43.691C24.2206 41.2208 23.0569 38.3249 23.0569 35.0467V28.179C27.281 26.324 31.2883 24.0105 35.0072 21.2808C38.7261 24.0105 42.734 26.324 46.9576 28.179V35.0467Z" fill="#F3A112"/>
<path d="M35.0072 42.7686C34.5359 42.7686 34.1536 43.1503 34.1536 43.6221V44.4046C34.1536 44.8759 34.5359 45.2582 35.0072 45.2582C35.479 45.2582 35.8607 44.8759 35.8607 44.4046V43.6221C35.8607 43.1503 35.479 42.7686 35.0072 42.7686Z" fill="#F3A112"/>
<path d="M37.5518 42.7686C37.0806 42.7686 36.6982 43.1503 36.6982 43.6221V44.4046C36.6982 44.8759 37.0806 45.2582 37.5518 45.2582C38.0236 45.2582 38.4054 44.8759 38.4054 44.4046V43.6221C38.4054 43.1503 38.0236 42.7686 37.5518 42.7686Z" fill="#F3A112"/>
<path d="M39.2429 43.6221V44.4046C39.2429 44.8759 39.6253 45.2582 40.0965 45.2582C40.5678 45.2582 40.9501 44.8759 40.9501 44.4046V43.6221C40.9501 43.1503 40.5678 42.7686 40.0965 42.7686C39.6253 42.7686 39.2429 43.1503 39.2429 43.6221Z" fill="#F3A112"/>
<path d="M32.4625 42.7686C31.9912 42.7686 31.6089 43.1503 31.6089 43.6221V44.4046C31.6089 44.8759 31.9912 45.2582 32.4625 45.2582C32.9343 45.2582 33.3161 44.8759 33.3161 44.4046V43.6221C33.3161 43.1503 32.9343 42.7686 32.4625 42.7686Z" fill="#F3A112"/>
<path d="M29.9179 42.7686C29.4467 42.7686 29.0643 43.1503 29.0643 43.6221V44.4046C29.0643 44.8759 29.4467 45.2582 29.9179 45.2582C30.3897 45.2582 30.7715 44.8759 30.7715 44.4046V43.6221C30.7715 43.1503 30.3897 42.7686 29.9179 42.7686Z" fill="#F3A112"/>
<path d="M31.6135 34.0478C31.3984 33.8271 31.0822 33.7393 30.7843 33.8177C30.487 33.8961 30.2542 34.1284 30.1758 34.4257C30.0974 34.7235 30.1858 35.0403 30.4059 35.2548L33.3051 38.1535C33.6385 38.4869 34.1787 38.4869 34.5121 38.1535L39.6087 33.0575C39.9343 32.7224 39.9305 32.1883 39.6003 31.8582C39.2702 31.5281 38.7362 31.5248 38.4016 31.8504L33.9086 36.3429L31.6135 34.0478Z" fill="#F3A112"/>
</g>
<defs>
<clipPath id="clip0">
<rect width="70" height="70" fill="white"/>
</clipPath>
</defs>
</svg>
