<svg width="70" height="70" viewBox="0 0 70 70" fill="none" xmlns="http://www.w3.org/2000/svg">
<path d="M13.1365 20.7914C13.1409 24.5623 14.7215 28.1593 17.4965 30.713C19.1466 32.2447 20.0814 34.3961 20.0747 36.6476V42.9456C20.0764 44.4878 21.3269 45.7383 22.8692 45.74H25.7514V65.6294C25.7514 67.6685 27.4048 69.322 29.4439 69.322C31.4831 69.322 33.1359 67.6685 33.1359 65.6294V60.2712C33.1609 59.2525 33.994 58.4394 35.0133 58.4394C36.0326 58.4394 36.8657 59.2525 36.8907 60.2712V62.0008C36.8785 64.8547 38.3941 67.4968 40.8639 68.9274C43.3332 70.3574 46.3794 70.3574 48.8487 68.9274C51.318 67.4968 52.8336 64.8547 52.8214 62.0008V55.177C54.437 54.584 55.9693 53.7842 57.3793 52.7983C60.9473 50.2757 62.8325 46.921 62.8325 43.0962V37.2878C62.8325 36.9466 62.6291 36.6381 62.3156 36.5036L62.2506 36.4747C58.7815 34.9825 55.5019 33.0834 52.4801 30.8175C52.1767 30.5902 51.7593 30.5902 51.4559 30.8175C48.4341 33.0828 45.1551 34.9819 41.6859 36.4747L41.6204 36.5031C41.3063 36.6376 41.1029 36.946 41.1029 37.2873V43.0951C41.1029 46.9143 42.9242 50.2662 46.3711 52.7889C47.8261 53.8443 49.4228 54.6874 51.1141 55.2937V62.0002C51.1246 64.2428 49.9347 66.3202 47.9939 67.4446C46.0532 68.5689 43.6589 68.5689 41.7187 67.4446C39.778 66.3202 38.5875 64.2428 38.5981 62.0002V60.2712C38.5636 58.3166 36.9685 56.7498 35.0133 56.7498C33.0581 56.7498 31.4636 58.3166 31.4286 60.2712V65.6294C31.4286 66.726 30.5399 67.6146 29.4439 67.6146C28.3474 67.6146 27.4587 66.726 27.4587 65.6294V45.74H30.3415C31.8838 45.7383 33.1343 44.4884 33.1359 42.9456V36.6387C33.1526 34.3611 34.1119 32.1919 35.7853 30.6469C40.2898 26.4514 41.3764 19.7365 38.4258 14.3344C35.4752 8.93231 29.2377 6.21792 23.2732 7.74073C17.3092 9.26355 13.1365 14.6356 13.1365 20.7914ZM44.8155 48.959C44.8472 48.8684 44.8633 48.7734 44.8638 48.6778V48.0659C44.8638 47.793 44.7332 47.5368 44.5131 47.3762C44.2931 47.2156 44.0091 47.17 43.7495 47.2528C43.1215 45.9579 42.7997 44.5356 42.8108 43.0962V37.848C46.0432 36.4186 49.1133 34.6468 51.9683 32.5632C54.8233 34.6468 57.8934 36.4186 61.1257 37.848V43.0962C61.1357 44.5356 60.8034 45.9573 60.1554 47.2434C59.8986 47.1711 59.6224 47.2233 59.4095 47.3851C59.1972 47.5463 59.0722 47.7986 59.0733 48.0653V48.6772C59.0733 48.7484 59.0827 48.8195 59.1005 48.889C58.3341 49.8405 57.4354 50.6775 56.4328 51.3761C55.0078 52.3748 53.4477 53.1651 51.7993 53.7237C50.207 53.1634 48.7053 52.3748 47.3404 51.3822C46.3905 50.6953 45.5408 49.8794 44.8155 48.959ZM30.3415 44.0327H22.8692C22.2767 44.0321 21.7937 43.5569 21.7832 42.9645H28.2051C28.6764 42.9645 29.0588 42.5827 29.0588 42.1108C29.0588 41.6395 28.6764 41.2571 28.2051 41.2571H21.7821V40.1895H23.1593C23.6306 40.1895 24.0129 39.8071 24.0129 39.3358C24.0129 38.864 23.6306 38.4822 23.1593 38.4822H21.7821V37.5012H31.4286V38.4816H25.1684C24.6971 38.4816 24.3147 38.864 24.3147 39.3353C24.3147 39.8071 24.6971 40.1889 25.1684 40.1889H31.4286V41.2577H30.2142C29.7429 41.2577 29.3606 41.6395 29.3606 42.1114C29.3606 42.5827 29.7429 42.965 30.2142 42.965H31.4269C31.4164 43.5569 30.9334 44.0315 30.3415 44.0327ZM27.0663 28.5133C26.3589 28.5133 25.7858 27.9403 25.7858 27.2328C25.7858 26.5258 26.3589 25.9523 27.0663 25.9523C27.7733 25.9523 28.3468 26.5258 28.3468 27.2328C28.3457 27.9397 27.7733 28.5127 27.0663 28.5133ZM26.6045 9.02957H26.7151C31.5281 9.07403 35.8281 12.0469 37.5699 16.5342C39.3117 21.0215 38.144 26.1168 34.6215 29.397C32.8197 31.0693 31.6976 33.3468 31.4697 35.7939H27.92V30.4062C27.9195 30.3045 27.9011 30.2039 27.8655 30.1089C29.3056 29.7093 30.2281 28.3071 30.0264 26.8265C29.8246 25.3459 28.5603 24.2422 27.0663 24.2422C25.5719 24.2422 24.3075 25.3459 24.1058 26.8265C23.904 28.3071 24.8271 29.7093 26.2666 30.1089C26.231 30.2039 26.2127 30.3045 26.2127 30.4062V35.7939H21.7421C21.5386 33.3696 20.4365 31.1087 18.6514 29.4553C15.0795 26.1763 13.8857 21.0415 15.6452 16.523C17.4042 12.0052 21.7559 9.02957 26.6045 9.02957Z" fill="#F3A112"/>
<path d="M27.92 4.73462V0.853666C27.92 0.382371 27.5376 0 27.0663 0C26.5945 0 26.2126 0.382371 26.2126 0.853666V4.73462C26.2126 5.20647 26.5945 5.58829 27.0663 5.58829C27.5376 5.58829 27.92 5.20647 27.92 4.73462Z" fill="#F3A112"/>
<path d="M40.366 19.3498C40.366 19.8211 40.7483 20.2034 41.2196 20.2034H45.1011C45.573 20.2034 45.9548 19.8211 45.9548 19.3498C45.9548 18.8785 45.573 18.4961 45.1011 18.4961H41.2196C40.7483 18.4961 40.366 18.8785 40.366 19.3498Z" fill="#F3A112"/>
<path d="M12.8448 19.3498C12.8448 18.8785 12.4624 18.4961 11.9911 18.4961H8.10904C7.63774 18.4961 7.25537 18.8785 7.25537 19.3498C7.25537 19.8211 7.63774 20.2034 8.10904 20.2034H11.9911C12.4624 20.2034 12.8448 19.8211 12.8448 19.3498Z" fill="#F3A112"/>
<path d="M39.6491 5.09908L36.6201 8.12804C36.4017 8.34312 36.315 8.6588 36.3939 8.95503C36.4723 9.25181 36.704 9.48301 37.0003 9.56138C37.2965 9.6403 37.6127 9.5536 37.8273 9.33518L40.8562 6.30622C41.0769 6.09113 41.1647 5.7749 41.0869 5.477C41.0085 5.17967 40.7756 4.9468 40.4783 4.86899C40.1804 4.79063 39.8636 4.87844 39.6491 5.09908Z" fill="#F3A112"/>
<path d="M13.5617 5.09948C13.2271 4.7738 12.693 4.77713 12.3629 5.10726C12.0328 5.43739 12.0289 5.97204 12.3546 6.30662L15.3835 9.33557C15.7181 9.66126 16.2522 9.65737 16.5823 9.32724C16.9125 8.99711 16.9164 8.46301 16.5907 8.12844L13.5617 5.09948Z" fill="#F3A112"/>
<path d="M52.8213 48.678V48.0661C52.8213 47.5942 52.4395 47.2124 51.9677 47.2124C51.4964 47.2124 51.114 47.5942 51.114 48.0661V48.678C51.114 49.1493 51.4964 49.5316 51.9677 49.5316C52.4395 49.5316 52.8213 49.1493 52.8213 48.678Z" fill="#F3A112"/>
<path d="M54.621 49.5316C55.0923 49.5316 55.4747 49.1493 55.4747 48.678V48.0661C55.4747 47.5942 55.0923 47.2124 54.621 47.2124C54.1492 47.2124 53.7673 47.5942 53.7673 48.0661V48.678C53.7673 49.1493 54.1492 49.5316 54.621 49.5316Z" fill="#F3A112"/>
<path d="M57.2736 49.5316C57.7449 49.5316 58.1273 49.1493 58.1273 48.678V48.0661C58.1273 47.5942 57.7449 47.2124 57.2736 47.2124C56.8017 47.2124 56.4199 47.5942 56.4199 48.0661V48.678C56.4199 49.1493 56.8017 49.5316 57.2736 49.5316Z" fill="#F3A112"/>
<path d="M49.3151 47.2114C48.8438 47.2114 48.4614 47.5938 48.4614 48.0651V48.677C48.4614 49.1483 48.8438 49.5307 49.3151 49.5307C49.7864 49.5307 50.1687 49.1483 50.1687 48.677V48.0651C50.1687 47.5938 49.7864 47.2114 49.3151 47.2114Z" fill="#F3A112"/>
<path d="M46.6623 47.2114C46.1904 47.2114 45.8086 47.5938 45.8086 48.0651V48.677C45.8086 49.1483 46.1904 49.5307 46.6623 49.5307C47.1336 49.5307 47.5159 49.1483 47.5159 48.677V48.0651C47.5159 47.5938 47.1336 47.2114 46.6623 47.2114Z" fill="#F3A112"/>
</svg>
