<svg width="70" height="70" viewBox="0 0 70 70" fill="none" xmlns="http://www.w3.org/2000/svg">
<path d="M5.63693 53.2435H25.4061V64.3957H21.0789C20.5659 64.3957 20.1497 64.8119 20.1497 65.3249C20.1497 65.8385 20.5659 66.2541 21.0789 66.2541H49.736C50.249 66.2541 50.6652 65.8385 50.6652 65.3249C50.6652 64.8119 50.249 64.3957 49.736 64.3957H44.5945V53.2435H64.3637C67.4749 53.2398 69.9964 50.7184 70 47.6071V9.35312C69.9964 6.24186 67.4749 3.72043 64.3637 3.7168H5.63693C2.52567 3.71982 0.0036297 6.24125 0 9.35312V47.6071C0.0036297 50.719 2.52567 53.2398 5.63693 53.2435ZM42.7361 64.3957H27.2651V53.2435H42.7361V64.3957ZM1.85841 9.35312C1.86083 7.26725 3.55106 5.57702 5.63693 5.5752H64.3643C66.4495 5.57823 68.1392 7.26785 68.1416 9.35312V42.8196C68.0285 42.7724 67.9063 42.7482 67.7835 42.7482H2.21654C2.09373 42.7482 1.97153 42.7724 1.85841 42.8196V9.35312ZM1.85841 44.5352C1.97153 44.583 2.09373 44.6072 2.21654 44.6072H67.7835C67.9063 44.6072 68.0285 44.583 68.1416 44.5352V47.6071C68.1392 49.693 66.4489 51.3826 64.3637 51.3851H5.63693C3.55106 51.3832 1.86083 49.693 1.85841 47.6071V44.5352Z" fill="#F3A112"/>
<path d="M6.25637 33.7455H25.1744C27.1138 37.3692 30.8899 39.6305 35 39.6305C39.11 39.6305 42.8861 37.3692 44.8256 33.7455H63.7436C64.6323 33.7449 65.3527 33.0244 65.354 32.1351V24.8255C65.3527 23.9363 64.6323 23.2158 63.7436 23.2145H44.8256C42.8861 19.5915 39.11 17.3296 35 17.3296C30.8899 17.3296 27.1138 19.5915 25.1744 23.2145H6.25637C5.3677 23.2158 4.64721 23.9363 4.646 24.8255V32.1351C4.64721 33.0244 5.3677 33.7449 6.25637 33.7455ZM45.6162 25.073H63.4955V31.8871H45.6162C46.3283 29.6718 46.3283 27.2883 45.6162 25.073ZM35 19.188C40.1318 19.188 44.292 23.3482 44.292 28.48C44.292 33.6118 40.1318 37.7721 35 37.7721C29.8682 37.7721 25.7079 33.6118 25.7079 28.48C25.714 23.3507 29.8706 19.194 35 19.188ZM6.5044 25.073H24.3837C23.6717 27.2883 23.6717 29.6718 24.3837 31.8871H6.5044V25.073Z" fill="#F3A112"/>
<path d="M18.4831 26.7358C17.52 26.7358 16.739 27.5168 16.739 28.4799C16.739 29.4436 17.52 30.224 18.4831 30.224C19.4468 30.224 20.2278 29.4436 20.2278 28.4799C20.2266 27.5168 19.4462 26.737 18.4831 26.7358ZM18.4831 28.5942C18.4202 28.5942 18.3694 28.5428 18.3694 28.4799C18.3694 28.417 18.4202 28.3656 18.4831 28.3656C18.5466 28.3656 18.5974 28.417 18.5974 28.4799C18.5974 28.5428 18.546 28.5942 18.4831 28.5942Z" fill="#F3A112"/>
<path d="M51.5169 30.224C52.48 30.224 53.261 29.4436 53.261 28.4799C53.261 27.5168 52.48 26.7358 51.5169 26.7358C50.5532 26.7358 49.7722 27.5168 49.7722 28.4799C49.7734 29.443 50.5538 30.2234 51.5169 30.224ZM51.5169 28.3656C51.5798 28.3656 51.6306 28.417 51.6306 28.4799C51.6306 28.5428 51.5798 28.5942 51.5169 28.5942C51.4534 28.5942 51.4026 28.5428 51.4026 28.4799C51.4026 28.417 51.454 28.3662 51.5169 28.3656Z" fill="#F3A112"/>
<path d="M10.2248 26.7358C9.2617 26.7358 8.48071 27.5168 8.48071 28.4799C8.48071 29.4436 9.2617 30.2246 10.2248 30.224C11.1885 30.224 11.9689 29.4436 11.9689 28.4799C11.9683 27.5168 11.1879 26.737 10.2248 26.7358ZM10.2248 28.5942C10.1619 28.5942 10.1104 28.5428 10.1104 28.4799C10.1104 28.417 10.1619 28.3656 10.2248 28.3656C10.2877 28.3656 10.3391 28.417 10.3391 28.4799C10.3391 28.5428 10.2877 28.5942 10.2248 28.5942Z" fill="#F3A112"/>
<path d="M59.7751 30.224C60.7382 30.224 61.5191 29.443 61.5191 28.4799C61.5191 27.5168 60.7382 26.7358 59.7751 26.7358C58.8114 26.7358 58.031 27.5168 58.031 28.4799C58.0316 29.443 58.812 30.2234 59.7751 30.224ZM59.7751 28.3656C59.838 28.3656 59.8894 28.417 59.8894 28.4799C59.8894 28.5428 59.838 28.5942 59.7751 28.5942C59.7122 28.5942 59.6607 28.5428 59.6607 28.4799C59.6607 28.417 59.7122 28.3656 59.7751 28.3656Z" fill="#F3A112"/>
<path d="M33.1604 31.8795C33.5234 32.2418 34.112 32.2418 34.4744 31.8795L39.9594 26.3944C40.1972 26.1603 40.2916 25.8167 40.2057 25.4942C40.1204 25.1712 39.8681 24.9195 39.5457 24.8336C39.2232 24.7483 38.8796 24.8427 38.6455 25.0804L33.8174 29.9079L31.3552 27.4458C30.9923 27.0828 30.4042 27.0828 30.0413 27.4458C29.6783 27.8088 29.6783 28.3968 30.0413 28.7597L33.1604 31.8795Z" fill="#F3A112"/>
</svg>
