<svg width="120" height="120" viewBox="0 0 120 120" fill="none" xmlns="http://www.w3.org/2000/svg">
<g clip-path="url(#clip0)">
<path d="M50.6893 43.35V47.2446C50.6715 50.5813 52.4413 53.6727 55.3288 55.3464C58.2164 57.0202 61.7776 57.0202 64.6652 55.3464C67.5518 53.6727 69.3225 50.5813 69.3047 47.2446V43.35C69.3225 40.0134 67.5518 36.922 64.6652 35.2492C61.7776 33.5755 58.2164 33.5755 55.3288 35.2492C52.4413 36.922 50.6715 40.0134 50.6893 43.35ZM53.7283 43.35C53.7134 41.1015 54.9054 39.0162 56.8513 37.8875C58.7961 36.7588 61.1979 36.7588 63.1428 37.8875C65.0886 39.0162 66.2806 41.1015 66.2658 43.35V47.2446C66.2806 49.4942 65.0886 51.5785 63.1428 52.7072C61.1979 53.8359 58.7961 53.8359 56.8513 52.7072C54.9054 51.5785 53.7134 49.4942 53.7283 47.2446V43.35Z" fill="#F3A112"/>
<path d="M66.3261 56.4524C65.5317 56.4049 65.1143 56.9123 64.8096 57.2843C63.6324 58.7226 61.8577 59.5378 59.999 59.4923C58.1402 59.4468 56.4071 58.5466 55.3011 57.0518C55.0044 56.6571 54.5355 56.4276 54.0408 56.4365C51.2364 56.5147 48.5862 57.7384 46.7077 59.8227C45.4959 59.1292 44.1416 58.7236 42.7498 58.6366C41.9505 58.5792 41.5291 59.0926 41.2501 59.4329C40.2569 60.6467 38.7592 61.3352 37.1903 61.2966C35.6224 61.258 34.1593 60.4983 33.2264 59.237C32.9297 58.8413 32.4608 58.6118 31.9662 58.6217C26.9953 58.777 23.0374 62.8359 23.0077 67.8087V75.4802C23.0077 76.3191 23.6883 76.9997 24.5271 76.9997H44.018V79.3738C44.018 80.2127 44.6986 80.8933 45.5374 80.8933H74.4576C75.2964 80.8933 75.977 80.2127 75.977 79.3738V76.9987H95.4352C96.2741 76.9987 96.9547 76.3181 96.9547 75.4792V67.8087C96.9517 62.9585 93.1837 58.9452 88.3444 58.6356C87.5431 58.5782 87.1237 59.0916 86.8447 59.4319C85.8515 60.6467 84.3529 61.3342 82.7849 61.2956C81.216 61.258 79.7539 60.4973 78.8211 59.2361C78.5233 58.8413 78.0554 58.6118 77.5608 58.6208C76.0621 58.6544 74.5941 59.057 73.2883 59.794C71.4929 57.8145 68.9941 56.6146 66.3261 56.4524ZM26.0466 73.9607V67.8087C26.0664 64.751 28.3129 62.1652 31.338 61.718C32.8713 63.3809 35.0278 64.3306 37.2892 64.3365C39.5516 64.3434 41.714 63.4076 43.2563 61.7527C43.8666 61.8625 44.4562 62.0643 45.0062 62.3521C44.3553 63.7153 44.018 65.2061 44.018 66.7166V73.9598L26.0466 73.9607ZM72.9371 77.8544H47.0569V66.7166C47.0796 63.0723 49.7891 60.0027 53.4028 59.5279C55.1161 61.4341 57.5566 62.5262 60.1207 62.5332C62.6838 62.5401 65.1301 61.4618 66.8544 59.5645C70.3592 60.1382 72.9332 63.1653 72.9371 66.7166V77.8544ZM76.9316 61.7161C78.464 63.3799 80.6215 64.3296 82.8838 64.3365C85.1452 64.3434 87.3087 63.4066 88.8509 61.7527C91.781 62.2819 93.9128 64.8311 93.9157 67.8087V73.9598H75.976V66.7166C75.977 65.2001 75.6397 63.7014 74.9908 62.3314C75.5982 62.0178 76.255 61.81 76.9316 61.7161Z" fill="#F3A112"/>
<path d="M82.779 59.1026C87.3809 59.0977 91.1103 55.3673 91.1163 50.7654V47.3565C91.1163 42.7517 87.3829 39.0193 82.779 39.0193C78.1741 39.0193 74.4418 42.7517 74.4418 47.3565V50.7654C74.4467 55.3673 78.1761 59.0977 82.779 59.1026ZM77.4807 47.3565C77.4807 44.4304 79.8529 42.0582 82.779 42.0582C85.7042 42.0582 88.0764 44.4304 88.0764 47.3565V50.7654C88.0764 53.6916 85.7042 56.0637 82.779 56.0637C79.8529 56.0637 77.4807 53.6916 77.4807 50.7654V47.3565Z" fill="#F3A112"/>
<path d="M37.1844 59.1026C41.7863 59.0977 45.5157 55.3673 45.5216 50.7654V47.3565C45.5216 42.7517 41.7883 39.0193 37.1844 39.0193C32.5795 39.0193 28.8472 42.7517 28.8472 47.3565V50.7654C28.8521 55.3673 32.5815 59.0967 37.1844 59.1026ZM31.8861 47.3565C31.8861 44.4304 34.2583 42.0582 37.1844 42.0582C40.1096 42.0582 42.4817 44.4304 42.4817 47.3565V50.7654C42.4817 53.6916 40.1096 56.0637 37.1844 56.0637C34.2583 56.0637 31.8861 53.6916 31.8861 50.7654V47.3565Z" fill="#F3A112"/>
<path d="M103.857 88.5666C109.328 80.1136 112.21 70.247 112.149 60.1786V30.7965C112.149 30.1891 111.788 29.6401 111.229 29.4007L110.898 29.2582C93.1432 21.6184 76.3569 11.8992 60.8933 0.304423C60.3531 -0.100172 59.6102 -0.100172 59.0701 0.304423C43.6055 11.8992 26.8202 21.6184 9.06548 29.2572L8.7331 29.4007C8.17517 29.6401 7.81311 30.1891 7.81311 30.7965V60.1786C7.81311 70.4448 10.5068 79.9889 15.818 88.5458C20.0499 95.3626 25.9388 101.558 33.3204 106.961C45.8342 116.121 58.158 119.788 58.6764 119.94C58.9504 120.02 59.2412 120.021 59.5162 119.944C60.0524 119.792 72.7977 116.129 85.7437 106.977C93.3845 101.576 99.4772 95.3824 103.857 88.5666ZM84.0601 104.446C72.8194 112.41 61.4205 116.178 59.1107 116.892C56.8542 116.169 45.8718 112.402 35.0427 104.457C27.9944 99.2859 22.3865 93.3782 18.3731 86.9007C13.3825 78.8424 10.852 69.8523 10.852 60.1786V31.7966C28.2625 24.2517 44.748 14.7294 59.9812 3.41654C75.2153 14.7294 91.6999 24.2517 109.11 31.7966V60.1786C109.168 69.6475 106.463 78.9275 101.327 86.8819C97.1713 93.3633 91.3616 99.272 84.0601 104.446Z" fill="#F3A112"/>
<path d="M104.313 35.3146C104.313 34.7073 103.951 34.1592 103.394 33.9188L103.113 33.7982C88.1218 27.3484 73.9501 19.1417 60.8932 9.35228C60.3531 8.9467 59.6102 8.9467 59.0701 9.35228C46.0132 19.1417 31.8415 27.3474 16.8507 33.7982L16.5698 33.9188C16.0118 34.1592 15.6498 34.7073 15.6498 35.3146V60.1523C15.6498 68.8743 17.9389 76.984 22.4517 84.2549C26.0446 90.0419 31.0422 95.3016 37.307 99.8867C47.9175 107.653 58.3727 110.763 58.8119 110.892C59.0859 110.972 59.3768 110.974 59.6518 110.896C60.1078 110.767 70.9181 107.66 81.8936 99.9015C88.3761 95.3174 93.5478 90.0607 97.2653 84.2756C101.914 77.0928 104.364 68.7081 104.313 60.1523V35.3146ZM101.274 60.1513C101.322 68.1067 99.0499 75.9038 94.7358 82.588C93.802 84.0402 92.788 85.438 91.6989 86.7754V86.5845C91.6989 85.7446 91.0183 85.065 90.1794 85.065C89.3396 85.065 88.66 85.7446 88.66 86.5845V89.6818C88.66 89.8302 88.6817 89.9776 88.7243 90.12C86.1147 92.7919 83.2647 95.2185 80.21 97.3671C73.775 101.87 66.7109 105.4 59.2472 107.843C52.0208 105.389 45.205 101.861 39.0293 97.379C36.1852 95.3056 33.5311 92.9848 31.0976 90.4435C31.2321 90.212 31.3034 89.9489 31.3034 89.6818V86.5845C31.3034 85.7456 30.6228 85.065 29.7839 85.065C28.9441 85.065 28.2645 85.7456 28.2645 86.5845V87.1998C27.0863 85.7367 25.9991 84.2024 25.0069 82.6068C20.8146 75.8365 18.6887 68.2818 18.6887 60.1523V36.3148C33.3165 29.9629 47.1706 21.961 59.9812 12.4634C72.7917 21.961 86.6459 29.9629 101.274 36.3148V60.1513Z" fill="#F3A112"/>
<path d="M59.9812 85.0659C59.1424 85.0659 58.4618 85.7465 58.4618 86.5854V89.6827C58.4618 90.5215 59.1424 91.2021 59.9812 91.2021C60.8201 91.2021 61.5007 90.5215 61.5007 89.6827V86.5854C61.5007 85.7465 60.8201 85.0659 59.9812 85.0659Z" fill="#F3A112"/>
<path d="M70.0477 85.0659C69.2078 85.0659 68.5282 85.7465 68.5282 86.5854V89.6827C68.5282 90.5215 69.2078 91.2021 70.0477 91.2021C70.8865 91.2021 71.5671 90.5215 71.5671 89.6827V86.5854C71.5671 85.7465 70.8865 85.0659 70.0477 85.0659Z" fill="#F3A112"/>
<path d="M80.1141 85.0659C79.2752 85.0659 78.5946 85.7465 78.5946 86.5854V89.6827C78.5946 90.5215 79.2752 91.2021 80.1141 91.2021C80.9529 91.2021 81.6335 90.5215 81.6335 89.6827V86.5854C81.6335 85.7465 80.9529 85.0659 80.1141 85.0659Z" fill="#F3A112"/>
<path d="M49.9157 85.0659C49.0758 85.0659 48.3962 85.7465 48.3962 86.5854V89.6827C48.3962 90.5215 49.0758 91.2021 49.9157 91.2021C50.7546 91.2021 51.4352 90.5215 51.4352 89.6827V86.5854C51.4352 85.7465 50.7546 85.0659 49.9157 85.0659Z" fill="#F3A112"/>
<path d="M39.8484 85.0659C39.0096 85.0659 38.329 85.7465 38.329 86.5854V89.6827C38.329 90.5215 39.0096 91.2021 39.8484 91.2021C40.6873 91.2021 41.3679 90.5215 41.3679 89.6827V86.5854C41.3679 85.7465 40.6873 85.0659 39.8484 85.0659Z" fill="#F3A112"/>
</g>
<defs>
<clipPath id="clip0">
<rect width="120" height="120" fill="white"/>
</clipPath>
</defs>
</svg>
