<svg width="35" height="35" viewBox="0 0 35 35" fill="none" xmlns="http://www.w3.org/2000/svg">
<path d="M24.5623 0H10.4377C4.70643 0 0.0437012 4.66266 0.0437012 10.394V24.6061C0.0437012 30.3373 4.70643 35 10.4377 35H24.5623C30.2935 35 34.9562 30.3373 34.9562 24.6061V10.394C34.9561 4.66266 30.2935 0 24.5623 0ZM33.5617 24.606C33.5617 29.5684 29.5246 33.6055 24.5623 33.6055H10.4377C5.47526 33.6055 1.43816 29.5684 1.43816 24.6061V10.394C1.43816 5.43156 5.47526 1.39446 10.4377 1.39446H24.5623C29.5246 1.39446 33.5617 5.43156 33.5617 10.394V24.606Z" fill="#F3A112"/>
<path d="M24.5623 3.98535H10.4377C6.90362 3.98535 4.02856 6.86034 4.02856 10.3944V24.6066C4.02856 28.1405 6.90362 31.0156 10.4377 31.0156H24.5623C28.0963 31.0156 30.9713 28.1405 30.9713 24.6066V10.3944C30.9713 6.86041 28.0963 3.98535 24.5623 3.98535ZM29.5769 24.6064C29.5769 27.3715 27.3274 29.6211 24.5623 29.6211H10.4377C7.67253 29.6211 5.42296 27.3715 5.42296 24.6064V10.3943C5.42296 7.62925 7.67253 5.37968 10.4377 5.37968V5.37975H24.5623C27.3274 5.37975 29.5769 7.62932 29.5769 10.3944V24.6064Z" fill="#F3A112"/>
<path d="M17.5001 8.48926C12.5313 8.48926 8.48889 12.5317 8.48889 17.5005C8.48889 22.4694 12.5313 26.5117 17.5001 26.5117C22.4689 26.5117 26.5113 22.4694 26.5113 17.5005C26.5113 12.5317 22.4689 8.48926 17.5001 8.48926ZM17.5001 25.1173C13.3002 25.1173 9.88335 21.7004 9.88335 17.5005C9.88335 13.3006 13.3002 9.88372 17.5001 9.88372C21.7 9.88372 25.1168 13.3006 25.1168 17.5005C25.1168 21.7004 21.7 25.1173 17.5001 25.1173Z" fill="#F3A112"/>
<path d="M17.5 12.376C14.6746 12.376 12.3759 14.6747 12.3759 17.5001C12.3759 20.3255 14.6746 22.6243 17.5 22.6243C20.3255 22.6243 22.6241 20.3255 22.6241 17.5001C22.6241 14.6747 20.3254 12.376 17.5 12.376ZM17.5 21.2299C15.4434 21.2299 13.7702 19.5567 13.7702 17.5001C13.7702 15.4435 15.4434 13.7704 17.5 13.7704C19.5566 13.7704 21.2297 15.4435 21.2297 17.5001C21.2297 19.5567 19.5566 21.2299 17.5 21.2299Z" fill="#F3A112"/>
<path d="M26.0097 6.8252C24.8159 6.8252 23.8446 7.79645 23.8446 8.99034C23.8446 10.1842 24.8159 11.1554 26.0097 11.1554C27.2035 11.1554 28.1748 10.1842 28.1748 8.99034C28.1748 7.79645 27.2035 6.8252 26.0097 6.8252ZM26.0097 9.76096C25.5848 9.76096 25.2391 9.41526 25.2391 8.99034C25.2391 8.56535 25.5848 8.21966 26.0097 8.21966C26.4347 8.21966 26.7804 8.56542 26.7804 8.99034C26.7804 9.41526 26.4347 9.76096 26.0097 9.76096Z" fill="#F3A112"/>
<path d="M16.3845 31.6533H9.83074C9.44567 31.6533 9.13354 31.9654 9.13354 32.3505C9.13354 32.7356 9.44567 33.0477 9.83074 33.0477H16.3845C16.7696 33.0477 17.0817 32.7356 17.0817 32.3505C17.0817 31.9654 16.7696 31.6533 16.3845 31.6533Z" fill="#F3A112"/>
<path d="M19.0338 31.6533H18.6154C18.2304 31.6533 17.9182 31.9654 17.9182 32.3505C17.9182 32.7356 18.2304 33.0477 18.6154 33.0477H19.0338C19.4188 33.0477 19.731 32.7356 19.731 32.3505C19.731 31.9654 19.4188 31.6533 19.0338 31.6533Z" fill="#F3A112"/>
</svg>
