<svg width="35" height="35" viewBox="0 0 35 35" fill="none" xmlns="http://www.w3.org/2000/svg">
<g clip-path="url(#clip0)">
<path d="M22.2565 7.60717H25.4458C26.129 7.60717 26.685 7.05127 26.685 6.36795V1.24325C26.685 0.559932 26.1291 0.0040332 25.4458 0.0040332H21.0663C21.0244 0.00225586 20.9514 0 20.8492 0C20.0229 0 17.1494 0.163037 14.8697 2.26023C12.3814 4.54979 12.6194 7.28855 12.7242 7.9638V11.3025H9.55428C8.87103 11.3025 8.31506 11.8584 8.31506 12.5417V18.0534C8.31506 18.7368 8.87096 19.2928 9.55428 19.2928H12.5408V33.7608C12.5408 34.4441 13.0967 35.0001 13.78 35.0001H20.0258C20.7091 35.0001 21.2651 34.4441 21.2651 33.7608V19.3642H24.8026C25.4325 19.3642 25.9617 18.8923 26.0337 18.2666L26.6769 12.6836C26.7173 12.3329 26.6058 11.9805 26.3708 11.717C26.1359 11.4536 25.7988 11.3025 25.4459 11.3025H21.2653V8.50001C21.2652 7.92094 21.4232 7.60717 22.2565 7.60717ZM20.5681 12.697H25.2717L24.6642 17.9698H20.5679C20.1829 17.9698 19.8707 18.282 19.8707 18.667V33.6056H13.9351V18.5955C13.9351 18.2105 13.6229 17.8983 13.2379 17.8983H9.70939V12.6969H13.4214C13.8064 12.6969 14.1186 12.3847 14.1186 11.9997V7.90713C14.1186 7.86714 14.1152 7.82715 14.1083 7.7877C14.0348 7.36559 13.7721 5.1651 15.8139 3.28645C17.7221 1.53091 20.1505 1.39446 20.8493 1.39446C20.9473 1.39446 21.0056 1.39706 21.0162 1.39761C21.0277 1.39815 21.0392 1.39843 21.0507 1.39843H25.2907V6.21284H22.2566C20.7627 6.21284 19.8708 7.06788 19.8708 8.50001V11.9997C19.8708 12.3849 20.1831 12.697 20.5681 12.697Z" fill="#F3A112"/>
<path d="M15.3387 23.4961C14.9537 23.4961 14.6415 23.8082 14.6415 24.1933V24.5419C14.6415 24.927 14.9537 25.2391 15.3387 25.2391C15.7237 25.2391 16.0359 24.927 16.0359 24.5419V24.1933C16.0359 23.8082 15.7236 23.4961 15.3387 23.4961Z" fill="#F3A112"/>
<path d="M15.3387 26.0752C14.9537 26.0752 14.6415 26.3873 14.6415 26.7724V32.0712C14.6415 32.4563 14.9537 32.7684 15.3387 32.7684C15.7237 32.7684 16.0359 32.4563 16.0359 32.0712V26.7724C16.0359 26.3873 15.7236 26.0752 15.3387 26.0752Z" fill="#F3A112"/>
</g>
<defs>
<clipPath id="clip0">
<rect width="35" height="35" fill="white"/>
</clipPath>
</defs>
</svg>
