<svg width="35" height="35" viewBox="0 0 35 35" fill="none" xmlns="http://www.w3.org/2000/svg">
<g clip-path="url(#clip0)">
<path d="M33.4449 22.9465C32.6836 22.0341 31.8235 21.2195 30.9916 20.4316C30.6993 20.1547 30.3969 19.8684 30.1057 19.5841C30.1056 19.584 30.1056 19.5839 30.1055 19.5838C29.7138 19.2018 29.522 18.9306 29.502 18.7303C29.4823 18.5334 29.6169 18.2413 29.9263 17.8096C30.3891 17.1602 30.8823 16.5096 31.3594 15.8806C31.7835 15.3214 32.222 14.7432 32.6423 14.1616L32.7366 14.0311C33.5566 12.8962 34.4044 11.7226 34.8587 10.2925C34.9884 9.88252 35.1232 9.27576 34.7982 8.7431C34.4731 8.21031 33.8703 8.0524 33.4455 7.98007C33.2381 7.94452 33.0412 7.94158 32.858 7.94158L27.5392 7.93687C26.6196 7.92156 25.9817 8.35742 25.634 9.23269C25.3558 9.93174 25.0272 10.7419 24.6465 11.5104C23.9181 12.994 22.9926 14.7028 21.6511 16.1265L21.5915 16.1899C21.5002 16.2874 21.351 16.4468 21.2743 16.4834C21.129 16.3921 20.9613 15.8697 20.969 15.5961C20.9692 15.5893 20.9692 15.5826 20.9692 15.5759L20.9645 9.43018C20.9645 9.39894 20.9623 9.3677 20.9582 9.33674C20.8389 8.45996 20.6063 7.58099 19.2186 7.30714C19.1741 7.29832 19.1289 7.29395 19.0836 7.29395H13.5509C12.51 7.29395 11.9594 7.77062 11.518 8.28742C11.3903 8.43808 11.0508 8.83812 11.2238 9.32717C11.3988 9.82202 11.9202 9.9208 12.0914 9.9532C12.6943 10.0676 13.0061 10.4084 13.1026 11.0599C13.2934 12.3257 13.3168 13.6798 13.1763 15.3193C13.1371 15.7595 13.0643 16.094 12.9467 16.3722C12.9142 16.4493 12.8856 16.497 12.8656 16.5251C12.8338 16.5122 12.7842 16.4876 12.7156 16.4407C12.2919 16.1508 11.9726 15.7001 11.6638 15.2643C10.4304 13.523 9.39302 11.5998 8.49184 9.3839C8.12071 8.47588 7.42304 7.96872 6.52862 7.9556C4.82455 7.92723 3.24852 7.92791 1.71207 7.95779C0.987391 7.97036 0.479205 8.19848 0.201392 8.63591C-0.076763 9.07417 -0.0665774 9.63294 0.231744 10.297C2.36429 15.0391 4.30064 18.4888 6.51002 21.4825C8.06568 23.5902 9.63167 25.0532 11.4382 26.0868C13.3363 27.1727 15.4769 27.7049 17.9603 27.7048C18.2426 27.7048 18.53 27.6979 18.8211 27.6841C20.3533 27.6143 20.9766 27.0048 21.0446 25.5126C21.0828 24.7239 21.1706 24.0851 21.4751 23.53C21.5603 23.3746 21.6564 23.2704 21.7321 23.2513C21.8127 23.2312 21.9555 23.2805 22.1143 23.3837C22.4046 23.5722 22.6546 23.8279 22.8601 24.0523C23.0685 24.2804 23.279 24.5161 23.4828 24.7439C23.9164 25.2291 24.3648 25.7307 24.8346 26.2093C25.8971 27.2924 27.1219 27.7891 28.4766 27.685L33.3442 27.6873C33.3443 27.6873 33.3444 27.6873 33.3444 27.6873C33.3599 27.6873 33.3753 27.6868 33.3908 27.6858C33.9522 27.6484 34.4376 27.3375 34.7227 26.8328C35.0659 26.2249 35.0607 25.455 34.7086 24.7724C34.3411 24.0628 33.8643 23.452 33.4449 22.9465ZM33.5086 26.1472C33.4414 26.2661 33.3587 26.2877 33.3159 26.2929L28.4494 26.2907C28.4493 26.2907 28.4491 26.2907 28.4489 26.2907C28.4297 26.2907 28.4105 26.2914 28.3915 26.2931C27.4327 26.3729 26.6178 26.0359 25.8297 25.2327C25.3827 24.7773 24.9454 24.288 24.5224 23.8148C24.3163 23.5843 24.1033 23.3457 23.8892 23.1114C23.6236 22.8214 23.2954 22.4882 22.8737 22.2143C22.2424 21.8045 21.7191 21.8169 21.3915 21.8995C21.0673 21.9812 20.6064 22.2143 20.2526 22.8598C19.7943 23.6951 19.6932 24.5962 19.6521 25.4475C19.6283 25.9682 19.5403 26.1057 19.5035 26.1406C19.4553 26.1864 19.2942 26.267 18.7569 26.2915C16.1745 26.4129 14.0074 25.9505 12.1307 24.8767C10.4981 23.9427 9.06859 22.601 7.63201 20.6547C5.48381 17.744 3.59367 14.3733 1.50357 9.72557C1.42783 9.5572 1.40445 9.45213 1.39768 9.39587C1.45101 9.37837 1.55519 9.35533 1.73784 9.35198C3.25871 9.32252 4.81826 9.3217 6.50695 9.34986C6.73814 9.35328 7.00139 9.42266 7.20073 9.91041C8.14231 12.2257 9.22999 14.2406 10.5261 16.0704C10.8702 16.5561 11.2985 17.1607 11.9281 17.5914C12.5047 17.9863 12.9726 17.9674 13.2637 17.8821C13.5549 17.7967 13.959 17.5595 14.2312 16.915C14.4069 16.4996 14.513 16.0318 14.5656 15.4408C14.7158 13.6871 14.6891 12.2292 14.4818 10.854C14.3358 9.86871 13.827 9.15695 13.0257 8.79348C13.168 8.71938 13.3283 8.68848 13.5511 8.68848H19.0114C19.3186 8.75739 19.3795 8.83833 19.4003 8.86601C19.4888 8.98366 19.5394 9.26195 19.5703 9.4794L19.5749 15.5685C19.5626 16.1522 19.8463 17.4468 20.8122 17.8018C20.8201 17.8047 20.8281 17.8075 20.8361 17.8101C21.7155 18.0974 22.2972 17.4767 22.6095 17.1431L22.6651 17.0839C24.1346 15.5243 25.1241 13.702 25.8971 12.1273C26.3001 11.3142 26.6413 10.4731 26.9299 9.74806C27.0742 9.38445 27.2056 9.32457 27.5191 9.3312C27.5234 9.33134 27.5277 9.33134 27.532 9.33134L32.8576 9.33605C32.9815 9.33605 33.1107 9.33749 33.211 9.35465C33.4648 9.39785 33.5693 9.45049 33.6037 9.47229C33.6073 9.51269 33.6065 9.62891 33.5298 9.87145C33.1435 11.0875 32.3969 12.1207 31.6066 13.2146L31.5122 13.3453C31.1016 13.9136 30.668 14.4852 30.2487 15.0382C29.7654 15.6754 29.2658 16.3342 28.7922 16.999C27.7795 18.412 27.8685 19.3496 29.1323 20.5822C29.4309 20.8738 29.737 21.1638 30.0332 21.4442C30.8727 22.2394 31.6657 22.9905 32.3735 23.8386C32.744 24.2852 33.164 24.8216 33.4701 25.4128C33.6298 25.7223 33.5906 26.0019 33.5086 26.1472Z" fill="#F3A112"/>
<path d="M5.08479 11.5966C4.98239 11.394 4.88088 11.1908 4.78032 10.9872C4.60969 10.6421 4.19188 10.5003 3.84646 10.6709C3.50124 10.8415 3.3596 11.2596 3.53016 11.6048C3.63263 11.8122 3.73606 12.0192 3.84031 12.2256C3.96301 12.4684 4.20849 12.6084 4.46306 12.6084C4.56875 12.6084 4.67614 12.5842 4.77697 12.5333C5.12075 12.3595 5.2585 11.9402 5.08479 11.5966Z" fill="#F3A112"/>
<path d="M9.45775 18.8295C8.3145 17.2805 7.24495 15.5981 6.18811 13.6862C6.00183 13.3492 5.57759 13.2271 5.24064 13.4133C4.9037 13.5996 4.78147 14.0238 4.96775 14.3608C6.0544 16.3265 7.15615 18.0592 8.3359 19.6576C8.47262 19.8429 8.68364 19.9408 8.89741 19.9408C9.04123 19.9408 9.18629 19.8965 9.31084 19.8044C9.62058 19.5758 9.68634 19.1394 9.45775 18.8295Z" fill="#F3A112"/>
</g>
<defs>
<clipPath id="clip0">
<rect width="35" height="35" fill="white"/>
</clipPath>
</defs>
</svg>
