<svg width="120" height="120" viewBox="0 0 120 120" fill="none" xmlns="http://www.w3.org/2000/svg">
<g clip-path="url(#clip0)">
<path d="M110.285 5.8916H9.71466C4.35184 5.89806 0.00645993 10.2434 0 15.6063V81.1154C0.00645993 86.4782 4.35184 90.8247 9.71466 90.83H42.9252V110.629H35.2249C34.3109 110.629 33.5712 111.369 33.5712 112.282C33.5712 113.195 34.3109 113.936 35.2249 113.936H86.2261C87.1391 113.936 87.8799 113.195 87.8799 112.282C87.8799 111.369 87.1391 110.629 86.2261 110.629H77.0756V90.83H110.285C115.648 90.8247 119.994 86.4782 120 81.1154V15.6063C119.993 10.2434 115.648 5.89806 110.285 5.8916ZM9.71466 9.19909H110.285C113.822 9.20339 116.689 12.0695 116.692 15.6063V72.1027H3.30749V15.6063C3.31179 12.0695 6.17785 9.20339 9.71466 9.19909ZM73.7671 110.629H46.2316V90.83H73.7671V110.629ZM110.285 87.5226H9.71466C6.17785 87.5193 3.31179 84.6533 3.30749 81.1154V75.4102H116.692V81.1154C116.689 84.6533 113.822 87.5193 110.285 87.5226Z" fill="#F3A112"/>
<path d="M76.8464 33.356C77.4289 34.0386 78.4506 34.1311 79.1472 33.5648L86.2176 27.8133C86.9185 27.2341 87.0208 26.1983 86.4469 25.4942C85.8741 24.789 84.8395 24.6792 84.13 25.2466L78.3128 29.9817L76.3253 27.654C75.731 26.9649 74.6909 26.8853 73.9986 27.4763C73.3063 28.0674 73.2224 29.1075 73.8102 29.8019L76.8464 33.356Z" fill="#F3A112"/>
<path d="M48.3924 60.857C51.673 63.2526 55.311 65.113 59.174 66.3695C59.4712 66.4578 59.7877 66.4589 60.087 66.3749C64.0599 65.126 67.8163 63.2709 71.2218 60.8743C78.2804 55.885 82.1682 49.325 82.5224 41.8541C88.0219 40.7957 92.1746 36.2554 92.7409 30.6848C93.3073 25.1142 90.1516 19.8311 84.9772 17.6896C79.8038 15.5471 73.8381 17.0522 70.3002 21.3933C67.0842 19.5027 63.977 17.4334 60.9925 15.1961C60.4047 14.7546 59.5961 14.7546 59.0082 15.1961C52.6915 19.9312 45.8353 23.9008 38.5841 27.022L38.4463 27.0802C37.839 27.3418 37.446 27.9394 37.446 28.5993V40.7236C37.446 48.6542 41.2316 55.6169 48.3924 60.857ZM80.1204 20.0346C85.2959 20.0346 89.4916 24.2303 89.4916 29.4058C89.4916 34.5812 85.2959 38.777 80.1204 38.777C74.9449 38.777 70.7492 34.5812 70.7492 29.4058C70.7492 24.2303 74.9449 20.0346 80.1204 20.0346ZM40.7535 29.6846C47.5505 26.6861 54.0029 22.962 59.9998 18.5768C62.7496 20.588 65.6167 22.4721 68.5539 24.2012C66.4522 28.8879 67.3803 34.3778 70.9042 38.1127C73.0855 40.4113 76.0442 41.8142 79.2041 42.0468C78.9188 46.5397 77.1703 50.5653 73.9867 54.0816C73.682 53.356 72.9068 52.9447 72.1348 53.0997C71.3629 53.2548 70.8073 53.9341 70.8073 54.7212V56.0002C70.8073 56.3028 70.8902 56.5989 71.0485 56.8573C70.5198 57.2868 69.9675 57.7078 69.3893 58.1202C66.3941 60.2197 63.1124 61.8788 59.6467 63.048C56.2983 61.8755 53.1383 60.2186 50.2679 58.1331C49.7738 57.7681 49.2979 57.3956 48.8424 57.0155C49.0696 56.7259 49.1934 56.3685 49.1924 56.0002V54.7222C49.1934 53.9029 48.5937 53.2074 47.783 53.0868C46.9734 52.9651 46.1971 53.455 45.957 54.2388C42.502 50.3467 40.7535 45.8205 40.7535 40.7246V29.6846Z" fill="#F3A112"/>
<path d="M59.9999 57.6538C60.9129 57.6538 61.6537 56.9131 61.6537 56.0001V54.7221C61.6537 53.8091 60.9129 53.0684 59.9999 53.0684C59.0869 53.0684 58.3462 53.8091 58.3462 54.7221V56.0001C58.3462 56.9131 59.0869 57.6538 59.9999 57.6538Z" fill="#F3A112"/>
<path d="M64.1535 57.6538C65.0665 57.6538 65.8072 56.9131 65.8072 56.0001V54.7221C65.8072 53.8091 65.0665 53.0684 64.1535 53.0684C63.2405 53.0684 62.4998 53.8091 62.4998 54.7221V56.0001C62.4998 56.9131 63.2405 57.6538 64.1535 57.6538Z" fill="#F3A112"/>
<path d="M68.3073 57.6538C69.2203 57.6538 69.9611 56.9131 69.9611 56.0001V54.7221C69.9611 53.8091 69.2203 53.0684 68.3073 53.0684C67.3943 53.0684 66.6536 53.8091 66.6536 54.7221V56.0001C66.6536 56.9131 67.3943 57.6538 68.3073 57.6538Z" fill="#F3A112"/>
<path d="M55.8461 57.6538C56.7602 57.6538 57.4999 56.9131 57.4999 56.0001V54.7221C57.4999 53.8091 56.7602 53.0684 55.8461 53.0684C54.9331 53.0684 54.1924 53.8091 54.1924 54.7221V56.0001C54.1924 56.9131 54.9331 57.6538 55.8461 57.6538Z" fill="#F3A112"/>
<path d="M51.6923 57.6538C52.6064 57.6538 53.3461 56.9131 53.3461 56.0001V54.7221C53.3461 53.8091 52.6064 53.0684 51.6923 53.0684C50.7793 53.0684 50.0386 53.8091 50.0386 54.7221V56.0001C50.0386 56.9131 50.7793 57.6538 51.6923 57.6538Z" fill="#F3A112"/>
</g>
<defs>
<clipPath id="clip0">
<rect width="120" height="120" fill="white"/>
</clipPath>
</defs>
</svg>
