<svg width="120" height="120" viewBox="0 0 120 120" fill="none" xmlns="http://www.w3.org/2000/svg">
<path d="M94 70V74C103.937 73.9883 111.988 65.9365 112 56H108C107.991 63.7285 101.729 69.9912 94 70Z" fill="#F3A112"/>
<path d="M116 42V22C116 9.84961 106.15 0 94 0C81.8496 0 72 9.84961 72 22V33.2002L20.7861 19.4658C16.5186 18.3281 12.1348 20.8594 10.9863 25.124L6.42188 42.1602C2.6875 42.9111 0.000976562 46.1914 0 50V112C0 116.418 3.58203 120 8 120H112C116.418 120 120 116.418 120 112V56C120.001 51.0332 118.568 46.1719 115.874 42H116ZM94 4C103.937 4.01172 111.988 12.0635 112 22V37.2822C110.772 36.1025 109.433 35.0449 108 34.126V22C108 14.2676 101.732 8 94 8C86.2676 8 80 14.2676 80 22V34.126C78.5674 35.0449 77.2275 36.1025 76 37.2822V22C76.0117 12.0635 84.0635 4.01172 94 4ZM104 32C97.6016 29.3252 90.3984 29.3252 84 32V22C84 16.4775 88.4775 12 94 12C99.5225 12 104 16.4775 104 22V32ZM14.8496 26.1602C15.4209 24.0254 17.6152 22.7578 19.75 23.3301L72 37.3301V42H10.5996L14.8496 26.1602ZM8 46H70C68.6758 49.168 67.9961 52.5674 68 56C68 56.6758 68.0498 57.3379 68.1016 58H4V50C4 47.791 5.79102 46 8 46ZM4 62H68.7256C69.5918 65.6426 71.2373 69.0537 73.5479 72H4V62ZM116 112C116 114.209 114.209 116 112 116H8C5.79102 116 4 114.209 4 112V76H77.4102C83.168 80.793 90.7178 82.8623 98.1143 81.6738C105.512 80.4854 112.033 76.1553 116 69.7998V112ZM94 78C81.8496 78 72 68.1504 72 56C72 43.8496 81.8496 34 94 34C106.15 34 116 43.8496 116 56C115.985 68.1445 106.145 77.9854 94 78Z" fill="#F3A112"/>
<path d="M100 64V57.2598C102.837 54.0439 102.633 49.1631 99.5372 46.1943C96.4425 43.2266 91.5577 43.2266 88.463 46.1943C85.3673 49.1631 85.1632 54.0439 88.0001 57.2598V64C88.0001 65.1045 88.8956 66 90.0001 66H98.0001C99.1046 66 100 65.1045 100 64ZM96.0001 56.4443V62H92.0001V56.4443C92.0001 55.877 91.7589 55.3369 91.338 54.958C90.4893 54.209 90.002 53.1318 90.0001 52C90.0001 49.791 91.7911 48 94.0001 48C96.2091 48 98.0001 49.791 98.0001 52C97.9981 53.1318 97.5108 54.209 96.6622 54.958C96.2413 55.3369 96.0001 55.877 96.0001 56.4443Z" fill="#F3A112"/>
<path d="M24.21 99.1065L22.7637 102H19.2363L17.7998 99.1065C17.46 98.4248 16.7617 97.9961 16 98H10V102H14.7637L15.7637 104L14.7637 106H10V110H16C16.7578 110 17.4512 109.572 17.79 108.894L19.2363 106H22.7637L24.21 108.894C24.5488 109.572 25.2422 110 26 110H32V106H27.2363L26.2363 104L27.2363 102H32V98H26C25.2422 98 24.5488 98.4278 24.21 99.1065Z" fill="#F3A112"/>
<path d="M94 106H108V110H94V106Z" fill="#F3A112"/>
<path d="M76 106H90V110H76V106Z" fill="#F3A112"/>
<path d="M58 106H72V110H58V106Z" fill="#F3A112"/>
<path d="M40 106H54V110H40V106Z" fill="#F3A112"/>
<path d="M104 84H108V92H104V84Z" fill="#F3A112"/>
<path d="M96 84H100V92H96V84Z" fill="#F3A112"/>
<path d="M88 84H92V92H88V84Z" fill="#F3A112"/>
<path d="M80 84H84V92H80V84Z" fill="#F3A112"/>
<path d="M72 84H76V92H72V84Z" fill="#F3A112"/>
<path d="M64 84H68V92H64V84Z" fill="#F3A112"/>
</svg>
