<svg width="97" height="21" viewBox="0 0 97 21" fill="none" xmlns="http://www.w3.org/2000/svg">
<path d="M13.2198 2.9868C13.1472 2.91383 13.0124 2.81479 12.8154 2.68969C12.6287 2.56459 12.3954 2.4447 12.1154 2.33002C11.8458 2.20492 11.5503 2.10067 11.2289 2.01727C10.9074 1.93386 10.5808 1.89216 10.249 1.89216C9.65791 1.89216 9.21721 2.00163 8.92687 2.22056C8.63653 2.43948 8.49136 2.74703 8.49136 3.14318C8.49136 3.37253 8.5432 3.5654 8.6469 3.72178C8.76096 3.86773 8.92168 3.99804 9.12907 4.11272C9.33646 4.2274 9.59569 4.33165 9.90677 4.42547C10.2282 4.5193 10.5963 4.61834 11.0111 4.72259C11.5503 4.86854 12.0377 5.02492 12.4732 5.19172C12.9191 5.35852 13.2924 5.56703 13.5931 5.81723C13.9042 6.06743 14.1426 6.36976 14.3086 6.72422C14.4745 7.06825 14.5574 7.49568 14.5574 8.00651C14.5574 8.60074 14.4434 9.11157 14.2152 9.53901C13.9975 9.95601 13.6968 10.2948 13.3131 10.5555C12.9398 10.8161 12.5043 11.009 12.0066 11.1341C11.5192 11.2487 11.0059 11.3061 10.4667 11.3061C9.63717 11.3061 8.81799 11.181 8.00918 10.9308C7.20037 10.6806 6.47452 10.3261 5.83162 9.8674L6.78041 8.00651C6.87374 8.10034 7.03965 8.22544 7.27814 8.38181C7.52701 8.52777 7.81735 8.67893 8.14917 8.83531C8.48099 8.98126 8.8491 9.10636 9.2535 9.21061C9.65791 9.31487 10.0727 9.36699 10.4978 9.36699C11.6799 9.36699 12.271 8.98647 12.271 8.22544C12.271 7.98566 12.2036 7.78237 12.0688 7.61557C11.934 7.44876 11.7421 7.30281 11.4933 7.17771C11.2444 7.05261 10.9437 6.93793 10.5911 6.83368C10.2386 6.72943 9.84455 6.61475 9.40904 6.48965C8.88021 6.3437 8.41877 6.18732 8.02474 6.02052C7.64107 5.84329 7.31962 5.64 7.06039 5.41065C6.80115 5.17087 6.60414 4.89982 6.46933 4.59749C6.3449 4.28473 6.28269 3.91464 6.28269 3.48721C6.28269 2.92425 6.38638 2.42385 6.59377 1.98599C6.80115 1.54813 7.08631 1.18325 7.44924 0.891349C7.82253 0.599445 8.25286 0.380517 8.74022 0.234565C9.22758 0.0781885 9.75123 0 10.3112 0C11.0889 0 11.8044 0.125102 12.4576 0.375305C13.1109 0.615083 13.6812 0.901775 14.1686 1.23538L13.2198 2.9868Z" fill="white"/>
<path d="M23.8475 9.2888V11.181H16.1794V0.0781885H23.7076V1.97035H18.3259V4.6444H22.9765V6.39582H18.3259V9.2888H23.8475Z" fill="white"/>
<path d="M27.6674 4.06581V11.181H25.5209V0.0781885H27.1852L32.9402 7.36536V0.093826H35.0866V11.181H33.3446L27.6674 4.06581Z" fill="white"/>
<path d="M42.0501 9.35135C42.5582 9.35135 42.9833 9.2471 43.3255 9.0386C43.6781 8.8301 43.9581 8.55904 44.1655 8.22544C44.3832 7.89183 44.5336 7.51131 44.6165 7.08388C44.7098 6.64603 44.7565 6.19775 44.7565 5.73904V0.0781885H46.8874V5.73904C46.8874 6.50008 46.7941 7.2142 46.6074 7.88141C46.4312 8.54862 46.146 9.13243 45.752 9.63283C45.3683 10.1332 44.8706 10.5294 44.2588 10.8213C43.647 11.1132 42.9159 11.2592 42.0657 11.2592C41.1843 11.2592 40.4325 11.108 39.8103 10.8057C39.1985 10.4929 38.7008 10.0863 38.3171 9.58592C37.9335 9.07509 37.6535 8.48607 37.4772 7.81886C37.3113 7.15165 37.2284 6.45838 37.2284 5.73904V0.0781885H39.3748V5.73904C39.3748 6.20817 39.4163 6.66167 39.4992 7.09952C39.5926 7.52695 39.7429 7.90747 39.9503 8.24108C40.1681 8.57468 40.448 8.84573 40.7902 9.05424C41.1324 9.25231 41.5524 9.35135 42.0501 9.35135Z" fill="white"/>
<path d="M49.0494 11.181V0.0781885H53.9334C54.4415 0.0781885 54.9081 0.187653 55.3332 0.406581C55.7687 0.615084 56.142 0.896562 56.4531 1.25102C56.7642 1.59505 57.0079 1.9912 57.1842 2.43948C57.3604 2.87734 57.4486 3.32041 57.4486 3.76869C57.4486 4.48802 57.2671 5.14481 56.9042 5.73904C56.5516 6.32285 56.0695 6.74507 55.4577 7.0057L57.9774 11.181H55.5665L53.3112 7.45919H51.1959V11.181H49.0494ZM51.1959 5.56703H53.8867C54.0837 5.56703 54.2652 5.52011 54.4311 5.42629C54.6074 5.33246 54.7577 5.20736 54.8822 5.05098C55.0066 4.88418 55.1051 4.69131 55.1777 4.47239C55.2503 4.25346 55.2866 4.01889 55.2866 3.76869C55.2866 3.50806 55.2451 3.26828 55.1621 3.04935C55.0792 2.83043 54.9651 2.64277 54.82 2.4864C54.6851 2.31959 54.5244 2.19449 54.3378 2.11109C54.1615 2.01726 53.98 1.97035 53.7934 1.97035H51.1959V5.56703Z" fill="white"/>
<path d="M62.3683 0.0781885H64.2659L68.4654 11.181H66.2568L65.2302 8.41309H61.3728L60.3618 11.181H58.1531L62.3683 0.0781885ZM64.8413 6.89623L63.3171 2.53331L61.7305 6.89623H64.8413Z" fill="white"/>
<path d="M78.5736 8.31926C78.5736 8.78839 78.4803 9.20019 78.2936 9.55464C78.107 9.9091 77.8477 10.2062 77.5159 10.446C77.1945 10.6858 76.816 10.8682 76.3805 10.9933C75.9553 11.1184 75.4991 11.181 75.0117 11.181H69.6767V0.0781885H75.5872C75.9709 0.0781885 76.3183 0.16159 76.6293 0.328392C76.9404 0.495194 77.2048 0.714122 77.4226 0.985176C77.6404 1.2458 77.8063 1.54813 77.9203 1.89216C78.0448 2.22577 78.107 2.56458 78.107 2.90861C78.107 3.45072 77.9722 3.96155 77.7026 4.44111C77.433 4.91024 77.0389 5.25948 76.5205 5.48884C77.153 5.67649 77.6507 6.01531 78.0136 6.50529C78.3869 6.98485 78.5736 7.5895 78.5736 8.31926ZM76.4116 7.91268C76.4116 7.71461 76.3753 7.52695 76.3027 7.34972C76.2405 7.16207 76.1524 7.00048 76.0383 6.86496C75.9242 6.72943 75.7894 6.62518 75.6339 6.5522C75.4783 6.4688 75.3073 6.4271 75.1206 6.4271H71.8232V9.35135H75.0117C75.2087 9.35135 75.3902 9.31487 75.5561 9.24189C75.7324 9.16891 75.8828 9.06987 76.0072 8.94477C76.1316 8.80925 76.2301 8.65287 76.3027 8.47564C76.3753 8.29841 76.4116 8.11076 76.4116 7.91268ZM71.8232 1.92344V4.72259H74.6851C75.048 4.72259 75.3539 4.59749 75.6028 4.34728C75.862 4.09708 75.9916 3.75305 75.9916 3.3152C75.9916 2.88776 75.8724 2.54895 75.6339 2.29874C75.4058 2.04854 75.1206 1.92344 74.7784 1.92344H71.8232Z" fill="white"/>
<path d="M80.2486 11.181V0.0781885H82.395V9.2888H88.0256V11.181H80.2486Z" fill="white"/>
<path d="M97 9.2888V11.181H89.3319V0.0781885H96.86V1.97035H91.4783V4.6444H96.129V6.39582H91.4783V9.2888H97Z" fill="white"/>
<path d="M8.16637 15.5946H8.66266L9.41461 17.4997L10.1741 15.5946H10.6779L9.74546 17.8853L10.7681 20.312L12.7006 15.5568H13.2721L11.0087 20.9244H10.5425L9.42212 18.2709L8.2942 20.9244H7.83551L5.57967 15.5568H6.14363L8.08366 20.312L9.09879 17.8853L8.16637 15.5946Z" fill="white"/>
<path d="M15.1252 21C14.8395 21 14.5763 20.9471 14.3357 20.8412C14.1001 20.7304 13.8946 20.5817 13.7191 20.3952C13.5436 20.2037 13.4058 19.9844 13.3055 19.7375C13.2103 19.4905 13.1627 19.2259 13.1627 18.9437C13.1627 18.6665 13.2103 18.4069 13.3055 18.165C13.4058 17.9181 13.5411 17.7039 13.7116 17.5224C13.887 17.3359 14.0951 17.1898 14.3357 17.0839C14.5763 16.9731 14.837 16.9176 15.1177 16.9176C15.4035 16.9176 15.6641 16.9731 15.8998 17.0839C16.1404 17.1898 16.3459 17.3359 16.5164 17.5224C16.6868 17.7089 16.8196 17.9231 16.9149 18.165C17.0101 18.4069 17.0578 18.664 17.0578 18.9361C17.0578 18.9765 17.0578 19.0168 17.0578 19.0571C17.0578 19.0974 17.0552 19.1251 17.0502 19.1402H13.6965C13.7116 19.3519 13.7592 19.5485 13.8394 19.7299C13.9246 19.9063 14.0324 20.06 14.1628 20.1911C14.2931 20.3221 14.441 20.4254 14.6064 20.501C14.7768 20.5716 14.9573 20.6069 15.1478 20.6069C15.2731 20.6069 15.3985 20.5892 15.5238 20.554C15.6491 20.5187 15.7644 20.4708 15.8697 20.4103C15.9749 20.3498 16.0702 20.2768 16.1554 20.1911C16.2406 20.1004 16.3058 20.0021 16.3509 19.8962L16.7946 20.0172C16.7344 20.1634 16.6492 20.2969 16.5389 20.4179C16.4286 20.5338 16.3008 20.6371 16.1554 20.7278C16.01 20.8135 15.8496 20.879 15.6742 20.9244C15.4987 20.9748 15.3157 21 15.1252 21ZM16.569 18.7471C16.5539 18.5355 16.5038 18.3439 16.4186 18.1726C16.3384 17.9962 16.2331 17.845 16.1028 17.719C15.9775 17.593 15.8296 17.4947 15.6591 17.4241C15.4937 17.3536 15.3157 17.3183 15.1252 17.3183C14.9348 17.3183 14.7543 17.3536 14.5838 17.4241C14.4134 17.4947 14.263 17.593 14.1327 17.719C14.0073 17.845 13.9046 17.9962 13.8244 18.1726C13.7492 18.349 13.7041 18.5405 13.689 18.7471H16.569Z" fill="white"/>
<path d="M19.7641 21C19.4533 21 19.1676 20.9219 18.9069 20.7656C18.6512 20.6094 18.4507 20.4078 18.3053 20.1608V20.9244H17.8467V15.4056H18.358V17.8097C18.5334 17.5426 18.744 17.3284 18.9896 17.1671C19.2353 17.0008 19.521 16.9176 19.8468 16.9176C20.1226 16.9176 20.3682 16.9756 20.5837 17.0915C20.8043 17.2074 20.9898 17.3637 21.1402 17.5602C21.2956 17.7517 21.4134 17.971 21.4936 18.2179C21.5788 18.4599 21.6214 18.7093 21.6214 18.9664C21.6214 19.2436 21.5738 19.5056 21.4786 19.7526C21.3833 19.9996 21.253 20.2163 21.0876 20.4028C20.9221 20.5842 20.7241 20.7304 20.4935 20.8412C20.2679 20.9471 20.0248 21 19.7641 21ZM19.6438 20.5464C19.8594 20.5464 20.0549 20.5036 20.2303 20.4179C20.4108 20.3272 20.5637 20.2087 20.689 20.0626C20.8194 19.9114 20.9196 19.7425 20.9898 19.556C21.065 19.3645 21.1026 19.168 21.1026 18.9664C21.1026 18.7597 21.0675 18.5607 20.9973 18.3691C20.9321 18.1776 20.8369 18.0088 20.7116 17.8626C20.5913 17.7114 20.4434 17.593 20.2679 17.5073C20.0975 17.4166 19.9095 17.3712 19.704 17.3712C19.5486 17.3712 19.4032 17.3989 19.2678 17.4544C19.1325 17.5048 19.0072 17.5753 18.8919 17.6661C18.7766 17.7568 18.6738 17.8626 18.5836 17.9836C18.4933 18.0995 18.4181 18.223 18.358 18.354V19.5787C18.378 19.7148 18.4307 19.8433 18.5159 19.9643C18.6061 20.0802 18.7114 20.181 18.8317 20.2667C18.957 20.3524 19.0899 20.4204 19.2302 20.4708C19.3756 20.5212 19.5135 20.5464 19.6438 20.5464Z" fill="white"/>
<path d="M27.63 16.5623C27.4796 16.3909 27.2791 16.2523 27.0285 16.1465C26.7778 16.0407 26.4921 15.9877 26.1713 15.9877C25.7 15.9877 25.3566 16.0785 25.1411 16.2599C24.9255 16.4363 24.8177 16.6782 24.8177 16.9857C24.8177 17.1469 24.8453 17.2805 24.9005 17.3863C24.9606 17.4871 25.0509 17.5753 25.1712 17.6509C25.2915 17.7265 25.4444 17.7921 25.6299 17.8475C25.8203 17.9029 26.0434 17.9584 26.2991 18.0138C26.5848 18.0743 26.8405 18.1423 27.0661 18.2179C27.2967 18.2935 27.4922 18.3893 27.6526 18.5052C27.813 18.6161 27.9358 18.7522 28.0211 18.9135C28.1063 19.0747 28.1489 19.2763 28.1489 19.5182C28.1489 19.7652 28.1013 19.9794 28.006 20.1608C27.9108 20.3423 27.7779 20.4935 27.6075 20.6144C27.437 20.7354 27.234 20.8261 26.9984 20.8866C26.7628 20.942 26.5046 20.9698 26.2239 20.9698C25.3967 20.9698 24.6824 20.7102 24.0808 20.1911L24.344 19.7602C24.4393 19.861 24.5521 19.9567 24.6824 20.0474C24.8177 20.1382 24.9656 20.2188 25.126 20.2894C25.2915 20.3549 25.4669 20.4078 25.6524 20.4481C25.8379 20.4834 26.0334 20.501 26.2389 20.501C26.665 20.501 26.9959 20.4254 27.2315 20.2742C27.4721 20.118 27.5924 19.8836 27.5924 19.5712C27.5924 19.4049 27.5573 19.2663 27.4872 19.1554C27.422 19.0395 27.3217 18.9412 27.1864 18.8605C27.051 18.7749 26.8831 18.7018 26.6826 18.6413C26.4821 18.5808 26.249 18.5203 25.9833 18.4599C25.7025 18.3943 25.4569 18.3263 25.2464 18.2557C25.0358 18.1852 24.8579 18.097 24.7125 17.9911C24.5671 17.8853 24.4568 17.7593 24.3816 17.6131C24.3114 17.4619 24.2763 17.278 24.2763 17.0613C24.2763 16.8143 24.3215 16.5951 24.4117 16.4035C24.5069 16.207 24.6398 16.0457 24.8102 15.9197C24.9807 15.7887 25.1812 15.6904 25.4118 15.6249C25.6424 15.5543 25.8981 15.519 26.1788 15.519C26.5347 15.519 26.8505 15.5745 27.1262 15.6854C27.407 15.7912 27.6601 15.9424 27.8857 16.1389L27.63 16.5623Z" fill="white"/>
<path d="M30.6636 21C30.3778 21 30.1146 20.9471 29.874 20.8412C29.6384 20.7304 29.4329 20.5817 29.2574 20.3952C29.082 20.2037 28.9441 19.9844 28.8438 19.7375C28.7486 19.4905 28.701 19.2259 28.701 18.9437C28.701 18.6665 28.7486 18.4069 28.8438 18.165C28.9441 17.9181 29.0795 17.7039 29.2499 17.5224C29.4254 17.3359 29.6334 17.1898 29.874 17.0839C30.1146 16.9731 30.3753 16.9176 30.656 16.9176C30.9418 16.9176 31.2025 16.9731 31.4381 17.0839C31.6787 17.1898 31.8842 17.3359 32.0547 17.5224C32.2251 17.7089 32.358 17.9231 32.4532 18.165C32.5485 18.4069 32.5961 18.664 32.5961 18.9361C32.5961 18.9765 32.5961 19.0168 32.5961 19.0571C32.5961 19.0974 32.5936 19.1251 32.5886 19.1402H29.2349C29.2499 19.3519 29.2975 19.5485 29.3777 19.7299C29.463 19.9063 29.5707 20.06 29.7011 20.1911C29.8314 20.3221 29.9793 20.4254 30.1447 20.501C30.3152 20.5716 30.4956 20.6069 30.6861 20.6069C30.8114 20.6069 30.9368 20.5892 31.0621 20.554C31.1874 20.5187 31.3027 20.4708 31.408 20.4103C31.5133 20.3498 31.6085 20.2768 31.6937 20.1911C31.779 20.1004 31.8441 20.0021 31.8892 19.8962L32.3329 20.0172C32.2727 20.1634 32.1875 20.2969 32.0772 20.4179C31.9669 20.5338 31.8391 20.6371 31.6937 20.7278C31.5484 20.8135 31.3879 20.879 31.2125 20.9244C31.037 20.9748 30.8541 21 30.6636 21ZM32.1073 18.7471C32.0923 18.5355 32.0421 18.3439 31.9569 18.1726C31.8767 17.9962 31.7714 17.845 31.6411 17.719C31.5158 17.593 31.3679 17.4947 31.1974 17.4241C31.032 17.3536 30.8541 17.3183 30.6636 17.3183C30.4731 17.3183 30.2926 17.3536 30.1222 17.4241C29.9517 17.4947 29.8013 17.593 29.671 17.719C29.5457 17.845 29.4429 17.9962 29.3627 18.1726C29.2875 18.349 29.2424 18.5405 29.2273 18.7471H32.1073Z" fill="white"/>
<path d="M35.34 17.4393C34.9941 17.4493 34.6934 17.5451 34.4377 17.7265C34.182 17.908 34.0016 18.1575 33.8963 18.475V20.9244H33.385V16.9857H33.8662V17.9307C34.0116 17.6283 34.2071 17.3914 34.4527 17.22C34.6984 17.0487 34.9616 16.963 35.2423 16.963C35.2824 16.963 35.315 16.9655 35.34 16.9705V17.4393Z" fill="white"/>
<path d="M37.1942 20.9244L35.6001 16.9857H36.1265L37.4725 20.4481L38.826 16.9857H39.3223L37.7281 20.9244H37.1942Z" fill="white"/>
<path d="M40.0306 20.9244V16.9857H40.5419V20.9244H40.0306ZM40.0306 16.1616V15.4056H40.5419V16.1616H40.0306Z" fill="white"/>
<path d="M41.3975 18.9437C41.3975 18.6665 41.4451 18.4044 41.5403 18.1575C41.6356 17.9105 41.7684 17.6963 41.9389 17.5149C42.1143 17.3284 42.3224 17.1822 42.563 17.0764C42.8036 16.9705 43.0693 16.9176 43.36 16.9176C43.731 16.9176 44.0543 17.0033 44.3301 17.1747C44.6058 17.341 44.8138 17.5678 44.9542 17.8551L44.4579 18.0138C44.3476 17.8122 44.1922 17.656 43.9917 17.5451C43.7962 17.4292 43.5781 17.3712 43.3375 17.3712C43.137 17.3712 42.949 17.4115 42.7735 17.4922C42.6031 17.5728 42.4527 17.6837 42.3224 17.8248C42.197 17.9609 42.0968 18.1247 42.0216 18.3162C41.9514 18.5077 41.9163 18.7169 41.9163 18.9437C41.9163 19.1655 41.9539 19.3746 42.0291 19.5712C42.1043 19.7677 42.2071 19.9391 42.3374 20.0852C42.4677 20.2264 42.6181 20.3398 42.7886 20.4254C42.964 20.5061 43.1495 20.5464 43.345 20.5464C43.4703 20.5464 43.5931 20.5288 43.7135 20.4935C43.8388 20.4582 43.9541 20.4103 44.0594 20.3498C44.1646 20.2843 44.2549 20.2112 44.3301 20.1306C44.4053 20.05 44.4579 19.9643 44.488 19.8736L44.9918 20.0248C44.9366 20.1659 44.8564 20.2969 44.7512 20.4179C44.6459 20.5338 44.5206 20.6371 44.3752 20.7278C44.2348 20.8135 44.0769 20.879 43.9014 20.9244C43.731 20.9748 43.553 21 43.3676 21C43.0818 21 42.8186 20.9471 42.578 20.8412C42.3374 20.7304 42.1294 20.5817 41.9539 20.3952C41.7784 20.2037 41.6406 19.9844 41.5403 19.7375C41.4451 19.4905 41.3975 19.2259 41.3975 18.9437Z" fill="white"/>
<path d="M47.4502 21C47.1645 21 46.9013 20.9471 46.6607 20.8412C46.4251 20.7304 46.2195 20.5817 46.0441 20.3952C45.8686 20.2037 45.7308 19.9844 45.6305 19.7375C45.5353 19.4905 45.4876 19.2259 45.4876 18.9437C45.4876 18.6665 45.5353 18.4069 45.6305 18.165C45.7308 17.9181 45.8661 17.7039 46.0366 17.5224C46.212 17.3359 46.4201 17.1898 46.6607 17.0839C46.9013 16.9731 47.162 16.9176 47.4427 16.9176C47.7285 16.9176 47.9891 16.9731 48.2247 17.0839C48.4654 17.1898 48.6709 17.3359 48.8413 17.5224C49.0118 17.7089 49.1446 17.9231 49.2399 18.165C49.3351 18.4069 49.3827 18.664 49.3827 18.9361C49.3827 18.9765 49.3827 19.0168 49.3827 19.0571C49.3827 19.0974 49.3802 19.1251 49.3752 19.1402H46.0215C46.0366 19.3519 46.0842 19.5485 46.1644 19.7299C46.2496 19.9063 46.3574 20.06 46.4877 20.1911C46.6181 20.3221 46.766 20.4254 46.9314 20.501C47.1018 20.5716 47.2823 20.6069 47.4728 20.6069C47.5981 20.6069 47.7234 20.5892 47.8488 20.554C47.9741 20.5187 48.0894 20.4708 48.1947 20.4103C48.2999 20.3498 48.3952 20.2768 48.4804 20.1911C48.5656 20.1004 48.6308 20.0021 48.6759 19.8962L49.1196 20.0172C49.0594 20.1634 48.9742 20.2969 48.8639 20.4179C48.7536 20.5338 48.6258 20.6371 48.4804 20.7278C48.335 20.8135 48.1746 20.879 47.9992 20.9244C47.8237 20.9748 47.6407 21 47.4502 21ZM48.894 18.7471C48.8789 18.5355 48.8288 18.3439 48.7436 18.1726C48.6634 17.9962 48.5581 17.845 48.4278 17.719C48.3024 17.593 48.1546 17.4947 47.9841 17.4241C47.8187 17.3536 47.6407 17.3183 47.4502 17.3183C47.2597 17.3183 47.0793 17.3536 46.9088 17.4241C46.7384 17.4947 46.588 17.593 46.4577 17.719C46.3323 17.845 46.2296 17.9962 46.1494 18.1726C46.0742 18.349 46.0291 18.5405 46.014 18.7471H48.894Z" fill="white"/>
<path d="M51.4725 21C51.1667 21 50.8684 20.9496 50.5777 20.8488C50.2869 20.748 50.0363 20.6018 49.8257 20.4103L50.0588 20.0626C50.2794 20.244 50.5025 20.3801 50.7281 20.4708C50.9587 20.5615 51.2043 20.6069 51.465 20.6069C51.7808 20.6069 52.0315 20.5439 52.2169 20.4179C52.4074 20.2868 52.5027 20.1029 52.5027 19.866C52.5027 19.7551 52.4776 19.6644 52.4275 19.5938C52.3774 19.5182 52.3022 19.4527 52.2019 19.3973C52.1067 19.3419 51.9838 19.294 51.8335 19.2537C51.6881 19.2083 51.5176 19.1629 51.3221 19.1176C51.0965 19.0621 50.901 19.0067 50.7356 18.9513C50.5702 18.8958 50.4323 18.8328 50.322 18.7623C50.2168 18.6917 50.1366 18.606 50.0814 18.5052C50.0313 18.3994 50.0062 18.2683 50.0062 18.1121C50.0062 17.9155 50.0438 17.7417 50.119 17.5905C50.1992 17.4393 50.3045 17.3158 50.4348 17.22C50.5702 17.1192 50.7256 17.0436 50.901 16.9932C51.0815 16.9428 51.272 16.9176 51.4725 16.9176C51.7733 16.9176 52.0465 16.968 52.2921 17.0688C52.5378 17.1646 52.7358 17.2931 52.8862 17.4544L52.638 17.7568C52.4927 17.6056 52.3147 17.4922 52.1041 17.4166C51.8986 17.341 51.6831 17.3032 51.4575 17.3032C51.3221 17.3032 51.1968 17.3183 51.0815 17.3485C50.9662 17.3737 50.8634 17.4166 50.7732 17.4771C50.688 17.5375 50.6203 17.6157 50.5702 17.7114C50.52 17.8021 50.495 17.9105 50.495 18.0365C50.495 18.1423 50.5125 18.228 50.5476 18.2935C50.5827 18.3591 50.6404 18.417 50.7206 18.4674C50.8008 18.5128 50.901 18.5556 51.0213 18.5959C51.1467 18.6312 51.2971 18.669 51.4725 18.7093C51.7232 18.7698 51.9437 18.8303 52.1342 18.8908C52.3247 18.9513 52.4826 19.0218 52.608 19.1025C52.7383 19.1831 52.836 19.2814 52.9012 19.3973C52.9664 19.5132 52.999 19.6543 52.999 19.8206C52.999 20.1835 52.8611 20.4708 52.5854 20.6825C52.3097 20.8942 51.9387 21 51.4725 21Z" fill="white"/>
<path d="M55.9405 20.9244V17.3939H55.3991V16.9857H55.9405V16.8798C55.9405 16.396 56.0433 16.018 56.2488 15.7458C56.4543 15.4686 56.7351 15.33 57.091 15.33C57.2464 15.33 57.3968 15.3527 57.5422 15.3981C57.6875 15.4434 57.8129 15.5039 57.9181 15.5795L57.7602 15.9499C57.69 15.8945 57.6023 15.8517 57.497 15.8214C57.3968 15.7912 57.294 15.7761 57.1887 15.7761C56.9481 15.7761 56.7651 15.8693 56.6398 16.0558C56.5145 16.2423 56.4518 16.5119 56.4518 16.8647V16.9857H57.5346V17.3939H56.4518V20.9244H55.9405Z" fill="white"/>
<path d="M59.7056 21C59.4198 21 59.1592 20.9471 58.9236 20.8412C58.688 20.7304 58.4824 20.5817 58.307 20.3952C58.1365 20.2087 58.0037 19.992 57.9084 19.745C57.8132 19.4981 57.7656 19.2385 57.7656 18.9664C57.7656 18.6892 57.8132 18.4271 57.9084 18.1801C58.0087 17.9332 58.144 17.7165 58.3145 17.53C58.4899 17.3435 58.6955 17.1948 58.9311 17.0839C59.1667 16.9731 59.4249 16.9176 59.7056 16.9176C59.9863 16.9176 60.2445 16.9731 60.4801 17.0839C60.7207 17.1948 60.9263 17.3435 61.0967 17.53C61.2721 17.7165 61.4075 17.9332 61.5028 18.1801C61.603 18.4271 61.6531 18.6892 61.6531 18.9664C61.6531 19.2385 61.6055 19.4981 61.5103 19.745C61.415 19.992 61.2797 20.2087 61.1042 20.3952C60.9338 20.5817 60.7282 20.7304 60.4876 20.8412C60.252 20.9471 59.9913 21 59.7056 21ZM58.2844 18.9739C58.2844 19.1957 58.322 19.4023 58.3972 19.5938C58.4724 19.7803 58.5727 19.9466 58.698 20.0928C58.8283 20.2339 58.9787 20.3448 59.1491 20.4254C59.3246 20.5061 59.5101 20.5464 59.7056 20.5464C59.9011 20.5464 60.0841 20.5061 60.2545 20.4254C60.43 20.3398 60.5829 20.2264 60.7132 20.0852C60.8435 19.9391 60.9463 19.7702 61.0215 19.5787C61.0967 19.3872 61.1343 19.1806 61.1343 18.9588C61.1343 18.7421 61.0967 18.538 61.0215 18.3465C60.9463 18.1499 60.8435 17.9811 60.7132 17.8399C60.5829 17.6938 60.43 17.5804 60.2545 17.4997C60.0841 17.4141 59.9011 17.3712 59.7056 17.3712C59.5101 17.3712 59.3271 17.4141 59.1567 17.4997C58.9862 17.5804 58.8358 17.6938 58.7055 17.8399C58.5752 17.9861 58.4724 18.1575 58.3972 18.354C58.322 18.5455 58.2844 18.7522 58.2844 18.9739Z" fill="white"/>
<path d="M64.4634 17.4393C64.1175 17.4493 63.8167 17.5451 63.561 17.7265C63.3054 17.908 63.1249 18.1575 63.0196 18.475V20.9244H62.5083V16.9857H62.9896V17.9307C63.1349 17.6283 63.3304 17.3914 63.5761 17.22C63.8217 17.0487 64.0849 16.963 64.3656 16.963C64.4057 16.963 64.4383 16.9655 64.4634 16.9705V17.4393Z" fill="white"/>
<path d="M70.9982 19.5409C70.9982 19.7425 70.9581 19.929 70.8779 20.1004C70.7977 20.2667 70.6899 20.4128 70.5546 20.5388C70.4192 20.6598 70.2613 20.7556 70.0808 20.8261C69.9004 20.8916 69.7074 20.9244 69.5018 20.9244H66.9828V15.5568H69.5545C69.74 15.5568 69.9079 15.5972 70.0583 15.6778C70.2087 15.7584 70.3365 15.8643 70.4418 15.9953C70.5471 16.1213 70.6273 16.2675 70.6824 16.4338C70.7426 16.5951 70.7726 16.7589 70.7726 16.9252C70.7726 17.1973 70.705 17.4468 70.5696 17.6736C70.4343 17.8954 70.2463 18.0617 70.0056 18.1726C70.3114 18.2633 70.5521 18.4321 70.7275 18.6791C70.908 18.9261 70.9982 19.2133 70.9982 19.5409ZM70.4719 19.4502C70.4719 19.3192 70.4493 19.1932 70.4042 19.0722C70.3591 18.9462 70.2939 18.8379 70.2087 18.7471C70.1285 18.6514 70.0307 18.5758 69.9154 18.5203C69.8051 18.4599 69.6848 18.4296 69.5545 18.4296H67.5092V20.4632H69.5018C69.6372 20.4632 69.7625 20.4355 69.8778 20.3801C69.9981 20.3246 70.1009 20.2516 70.1861 20.1608C70.2764 20.0651 70.3465 19.9567 70.3967 19.8358C70.4468 19.7098 70.4719 19.5812 70.4719 19.4502ZM67.5092 16.018V17.9987H69.3439C69.4743 17.9987 69.5946 17.971 69.7049 17.9155C69.8202 17.8601 69.9179 17.787 69.9981 17.6963C70.0783 17.6056 70.141 17.5023 70.1861 17.3863C70.2312 17.2654 70.2538 17.1394 70.2538 17.0083C70.2538 16.8723 70.2312 16.7437 70.1861 16.6228C70.146 16.5018 70.0859 16.3985 70.0056 16.3128C69.9305 16.2221 69.8402 16.1515 69.7349 16.1011C69.6297 16.0457 69.5144 16.018 69.389 16.018H67.5092Z" fill="white"/>
<path d="M73.1113 21C72.6852 21 72.3669 20.8589 72.1563 20.5766C71.9508 20.2894 71.848 19.8635 71.848 19.299V16.9857H72.3594V19.2083C72.3594 20.1004 72.6627 20.5464 73.2692 20.5464C73.4196 20.5464 73.5675 20.5212 73.7129 20.4708C73.8582 20.4204 73.9911 20.3473 74.1114 20.2516C74.2367 20.1558 74.347 20.0424 74.4423 19.9114C74.5425 19.7803 74.6227 19.6316 74.6829 19.4653V16.9857H75.1942V20.2591C75.1942 20.4002 75.2544 20.4708 75.3747 20.4708V20.9244C75.3145 20.9345 75.2644 20.9395 75.2243 20.9395C75.1892 20.9395 75.1641 20.9395 75.1491 20.9395C75.0288 20.9345 74.931 20.8916 74.8558 20.811C74.7806 20.7304 74.743 20.622 74.743 20.4859V20.0323C74.5726 20.3398 74.3395 20.5792 74.0437 20.7505C73.753 20.9168 73.4422 21 73.1113 21Z" fill="white"/>
<path d="M77.6512 21C77.3454 21 77.0471 20.9496 76.7564 20.8488C76.4656 20.748 76.215 20.6018 76.0044 20.4103L76.2375 20.0626C76.4581 20.244 76.6812 20.3801 76.9068 20.4708C77.1374 20.5615 77.383 20.6069 77.6437 20.6069C77.9595 20.6069 78.2102 20.5439 78.3956 20.4179C78.5861 20.2868 78.6814 20.1029 78.6814 19.866C78.6814 19.7551 78.6563 19.6644 78.6062 19.5938C78.556 19.5182 78.4809 19.4527 78.3806 19.3973C78.2853 19.3419 78.1625 19.294 78.0121 19.2537C77.8668 19.2083 77.6963 19.1629 77.5008 19.1176C77.2752 19.0621 77.0797 19.0067 76.9143 18.9513C76.7489 18.8958 76.611 18.8328 76.5007 18.7623C76.3954 18.6917 76.3152 18.606 76.2601 18.5052C76.21 18.3994 76.1849 18.2683 76.1849 18.1121C76.1849 17.9155 76.2225 17.7417 76.2977 17.5905C76.3779 17.4393 76.4832 17.3158 76.6135 17.22C76.7489 17.1192 76.9043 17.0436 77.0797 16.9932C77.2602 16.9428 77.4507 16.9176 77.6512 16.9176C77.952 16.9176 78.2252 16.968 78.4708 17.0688C78.7165 17.1646 78.9145 17.2931 79.0649 17.4544L78.8167 17.7568C78.6713 17.6056 78.4934 17.4922 78.2828 17.4166C78.0773 17.341 77.8617 17.3032 77.6362 17.3032C77.5008 17.3032 77.3755 17.3183 77.2602 17.3485C77.1449 17.3737 77.0421 17.4166 76.9519 17.4771C76.8667 17.5375 76.799 17.6157 76.7489 17.7114C76.6987 17.8021 76.6737 17.9105 76.6737 18.0365C76.6737 18.1423 76.6912 18.228 76.7263 18.2935C76.7614 18.3591 76.819 18.417 76.8993 18.4674C76.9795 18.5128 77.0797 18.5556 77.2 18.5959C77.3254 18.6312 77.4757 18.669 77.6512 18.7093C77.9018 18.7698 78.1224 18.8303 78.3129 18.8908C78.5034 18.9513 78.6613 19.0218 78.7866 19.1025C78.917 19.1831 79.0147 19.2814 79.0799 19.3973C79.1451 19.5132 79.1777 19.6543 79.1777 19.8206C79.1777 20.1835 79.0398 20.4708 78.7641 20.6825C78.4884 20.8942 78.1174 21 77.6512 21Z" fill="white"/>
<path d="M80.0146 20.9244V16.9857H80.5259V20.9244H80.0146ZM80.0146 16.1616V15.4056H80.5259V16.1616H80.0146Z" fill="white"/>
<path d="M84.9457 20.9244H84.4344V18.7245C84.4344 18.2557 84.3642 17.9155 84.2238 17.7039C84.0885 17.4922 83.8779 17.3863 83.5922 17.3863C83.4418 17.3863 83.2914 17.4141 83.141 17.4695C82.9906 17.5249 82.8503 17.6031 82.7199 17.7039C82.5946 17.8047 82.4818 17.9256 82.3816 18.0667C82.2813 18.2028 82.2086 18.3515 82.1635 18.5128V20.9244H81.6522V16.9857H82.1184V17.8777C82.2788 17.5905 82.5069 17.3586 82.8026 17.1822C83.1034 17.0058 83.4293 16.9176 83.7802 16.9176C83.9957 16.9176 84.1787 16.9579 84.3291 17.0386C84.4795 17.1192 84.5998 17.2326 84.69 17.3788C84.7803 17.5249 84.8454 17.7039 84.8855 17.9155C84.9256 18.1272 84.9457 18.3616 84.9457 18.6186V20.9244Z" fill="white"/>
<path d="M87.728 21C87.4422 21 87.179 20.9471 86.9384 20.8412C86.7028 20.7304 86.4973 20.5817 86.3218 20.3952C86.1464 20.2037 86.0085 19.9844 85.9082 19.7375C85.813 19.4905 85.7654 19.2259 85.7654 18.9437C85.7654 18.6665 85.813 18.4069 85.9082 18.165C86.0085 17.9181 86.1439 17.7039 86.3143 17.5224C86.4898 17.3359 86.6978 17.1898 86.9384 17.0839C87.179 16.9731 87.4397 16.9176 87.7204 16.9176C88.0062 16.9176 88.2669 16.9731 88.5025 17.0839C88.7431 17.1898 88.9486 17.3359 89.1191 17.5224C89.2895 17.7089 89.4224 17.9231 89.5176 18.165C89.6128 18.4069 89.6605 18.664 89.6605 18.9361C89.6605 18.9765 89.6605 19.0168 89.6605 19.0571C89.6605 19.0974 89.658 19.1251 89.653 19.1402H86.2993C86.3143 19.3519 86.3619 19.5485 86.4421 19.7299C86.5274 19.9063 86.6351 20.06 86.7655 20.1911C86.8958 20.3221 87.0437 20.4254 87.2091 20.501C87.3796 20.5716 87.56 20.6069 87.7505 20.6069C87.8758 20.6069 88.0012 20.5892 88.1265 20.554C88.2518 20.5187 88.3671 20.4708 88.4724 20.4103C88.5777 20.3498 88.6729 20.2768 88.7581 20.1911C88.8434 20.1004 88.9085 20.0021 88.9536 19.8962L89.3973 20.0172C89.3371 20.1634 89.2519 20.2969 89.1416 20.4179C89.0313 20.5338 88.9035 20.6371 88.7581 20.7278C88.6128 20.8135 88.4523 20.879 88.2769 20.9244C88.1014 20.9748 87.9185 21 87.728 21ZM89.1717 18.7471C89.1567 18.5355 89.1065 18.3439 89.0213 18.1726C88.9411 17.9962 88.8358 17.845 88.7055 17.719C88.5802 17.593 88.4323 17.4947 88.2618 17.4241C88.0964 17.3536 87.9185 17.3183 87.728 17.3183C87.5375 17.3183 87.357 17.3536 87.1866 17.4241C87.0161 17.4947 86.8657 17.593 86.7354 17.719C86.6101 17.845 86.5073 17.9962 86.4271 18.1726C86.3519 18.349 86.3068 18.5405 86.2917 18.7471H89.1717Z" fill="white"/>
<path d="M91.7502 21C91.4445 21 91.1462 20.9496 90.8554 20.8488C90.5647 20.748 90.314 20.6018 90.1035 20.4103L90.3366 20.0626C90.5572 20.244 90.7802 20.3801 91.0058 20.4708C91.2364 20.5615 91.482 20.6069 91.7427 20.6069C92.0585 20.6069 92.3092 20.5439 92.4947 20.4179C92.6852 20.2868 92.7804 20.1029 92.7804 19.866C92.7804 19.7551 92.7553 19.6644 92.7052 19.5938C92.6551 19.5182 92.5799 19.4527 92.4796 19.3973C92.3844 19.3419 92.2616 19.294 92.1112 19.2537C91.9658 19.2083 91.7954 19.1629 91.5999 19.1176C91.3743 19.0621 91.1788 19.0067 91.0133 18.9513C90.8479 18.8958 90.71 18.8328 90.5998 18.7623C90.4945 18.6917 90.4143 18.606 90.3591 18.5052C90.309 18.3994 90.2839 18.2683 90.2839 18.1121C90.2839 17.9155 90.3215 17.7417 90.3967 17.5905C90.4769 17.4393 90.5822 17.3158 90.7126 17.22C90.8479 17.1192 91.0033 17.0436 91.1788 16.9932C91.3592 16.9428 91.5497 16.9176 91.7502 16.9176C92.051 16.9176 92.3242 16.968 92.5699 17.0688C92.8155 17.1646 93.0135 17.2931 93.1639 17.4544L92.9158 17.7568C92.7704 17.6056 92.5924 17.4922 92.3819 17.4166C92.1764 17.341 91.9608 17.3032 91.7352 17.3032C91.5999 17.3032 91.4745 17.3183 91.3592 17.3485C91.2439 17.3737 91.1412 17.4166 91.0509 17.4771C90.9657 17.5375 90.898 17.6157 90.8479 17.7114C90.7978 17.8021 90.7727 17.9105 90.7727 18.0365C90.7727 18.1423 90.7903 18.228 90.8253 18.2935C90.8604 18.3591 90.9181 18.417 90.9983 18.4674C91.0785 18.5128 91.1788 18.5556 91.2991 18.5959C91.4244 18.6312 91.5748 18.669 91.7502 18.7093C92.0009 18.7698 92.2215 18.8303 92.412 18.8908C92.6025 18.9513 92.7604 19.0218 92.8857 19.1025C93.016 19.1831 93.1138 19.2814 93.1789 19.3973C93.2441 19.5132 93.2767 19.6543 93.2767 19.8206C93.2767 20.1835 93.1388 20.4708 92.8631 20.6825C92.5874 20.8942 92.2165 21 91.7502 21Z" fill="white"/>
<path d="M95.4145 21C95.1087 21 94.8105 20.9496 94.5197 20.8488C94.229 20.748 93.9783 20.6018 93.7678 20.4103L94.0009 20.0626C94.2214 20.244 94.4445 20.3801 94.6701 20.4708C94.9007 20.5615 95.1463 20.6069 95.407 20.6069C95.7228 20.6069 95.9735 20.5439 96.159 20.4179C96.3494 20.2868 96.4447 20.1029 96.4447 19.866C96.4447 19.7551 96.4196 19.6644 96.3695 19.5938C96.3194 19.5182 96.2442 19.4527 96.1439 19.3973C96.0487 19.3419 95.9258 19.294 95.7755 19.2537C95.6301 19.2083 95.4596 19.1629 95.2641 19.1176C95.0386 19.0621 94.843 19.0067 94.6776 18.9513C94.5122 18.8958 94.3743 18.8328 94.264 18.7623C94.1588 18.6917 94.0786 18.606 94.0234 18.5052C93.9733 18.3994 93.9482 18.2683 93.9482 18.1121C93.9482 17.9155 93.9858 17.7417 94.061 17.5905C94.1412 17.4393 94.2465 17.3158 94.3768 17.22C94.5122 17.1192 94.6676 17.0436 94.843 16.9932C95.0235 16.9428 95.214 16.9176 95.4145 16.9176C95.7153 16.9176 95.9885 16.968 96.2341 17.0688C96.4798 17.1646 96.6778 17.2931 96.8282 17.4544L96.58 17.7568C96.4347 17.6056 96.2567 17.4922 96.0462 17.4166C95.8406 17.341 95.6251 17.3032 95.3995 17.3032C95.2641 17.3032 95.1388 17.3183 95.0235 17.3485C94.9082 17.3737 94.8055 17.4166 94.7152 17.4771C94.63 17.5375 94.5623 17.6157 94.5122 17.7114C94.4621 17.8021 94.437 17.9105 94.437 18.0365C94.437 18.1423 94.4545 18.228 94.4896 18.2935C94.5247 18.3591 94.5824 18.417 94.6626 18.4674C94.7428 18.5128 94.843 18.5556 94.9634 18.5959C95.0887 18.6312 95.2391 18.669 95.4145 18.7093C95.6652 18.7698 95.8857 18.8303 96.0762 18.8908C96.2667 18.9513 96.4246 19.0218 96.55 19.1025C96.6803 19.1831 96.7781 19.2814 96.8432 19.3973C96.9084 19.5132 96.941 19.6543 96.941 19.8206C96.941 20.1835 96.8031 20.4708 96.5274 20.6825C96.2517 20.8942 95.8807 21 95.4145 21Z" fill="white"/>
<path d="M1.92128 5.13186C2.98238 5.13186 3.84256 4.26705 3.84256 3.20024C3.84256 2.13344 2.98238 1.26862 1.92128 1.26862C0.860187 1.26862 0 2.13344 0 3.20024C0 4.26705 0.860187 5.13186 1.92128 5.13186Z" fill="white"/>
<path d="M1.92128 11.4064C2.98238 11.4064 3.84256 10.5416 3.84256 9.4748C3.84256 8.40799 2.98238 7.54318 1.92128 7.54318C0.860187 7.54318 0 8.40799 0 9.4748C0 10.5416 0.860187 11.4064 1.92128 11.4064Z" fill="white"/>
</svg>
